  0
SECTION
  2
HEADER
  9
$ACADVER
  1
AC1015
  9
$ACADMAINTVER
 70
     6
  9
$DWGCODEPAGE
  3
ANSI_1252
  9
$INSBASE
 10
0.0
 20
0.0
 30
0.0
  9
$EXTMIN
 10
0.0
 20
0.0
 30
0.0
  9
$EXTMAX
 10
215.9
 20
279.4
 30
0.0
  9
$LIMMIN
 10
0.0
 20
0.0
  9
$LIMMAX
 10
215.9
 20
279.4
  9
$ORTHOMODE
 70
     0
  9
$REGENMODE
 70
     1
  9
$FILLMODE
 70
     1
  9
$QTEXTMODE
 70
     0
  9
$MIRRTEXT
 70
     1
  9
$LTSCALE
 40
1.0
  9
$ATTMODE
 70
     1
  9
$TEXTSIZE
 40
3.175
  9
$TRACEWID
 40
1.0
  9
$TEXTSTYLE
  7
Standard
  9
$CLAYER
  8
0
  9
$CELTYPE
  6
ByLayer
  9
$CECOLOR
 62
   256
  9
$CELTSCALE
 40
1.0
  9
$DISPSILH
 70
     0
  9
$DIMSCALE
 40
1.0
  9
$DIMASZ
 40
3.302
  9
$DIMEXO
 40
1.27
  9
$DIMDLI
 40
3.75
  9
$DIMRND
 40
0.0
  9
$DIMDLE
 40
0.0
  9
$DIMEXE
 40
3.175
  9
$DIMTP
 40
0.0
  9
$DIMTM
 40
0.0
  9
$DIMTXT
 40
3.175
  9
$DIMCEN
 40
2.5
  9
$DIMTSZ
 40
0.0
  9
$DIMTOL
 70
     0
  9
$DIMLIM
 70
     0
  9
$DIMTIH
 70
     1
  9
$DIMTOH
 70
     1
  9
$DIMSE1
 70
     0
  9
$DIMSE2
 70
     0
  9
$DIMTAD
 70
     0
  9
$DIMZIN
 70
     1
  9
$DIMBLK
  1

  9
$DIMASO
 70
     1
  9
$DIMSHO
 70
     1
  9
$DIMPOST
  1

  9
$DIMAPOST
  1

  9
$DIMALT
 70
     0
  9
$DIMALTD
 70
     3
  9
$DIMALTF
 40
0.0393700787
  9
$DIMLFAC
 40
1.0
  9
$DIMTOFL
 70
     1
  9
$DIMTVP
 40
0.0
  9
$DIMTIX
 70
     0
  9
$DIMSOXD
 70
     0
  9
$DIMSAH
 70
     0
  9
$DIMBLK1
  1

  9
$DIMBLK2
  1

  9
$DIMSTYLE
  2
ISO-25
  9
$DIMCLRD
 70
     0
  9
$DIMCLRE
 70
     0
  9
$DIMCLRT
 70
     0
  9
$DIMTFAC
 40
1.0
  9
$DIMGAP
 40
1.524
  9
$DIMJUST
 70
     0
  9
$DIMSD1
 70
     0
  9
$DIMSD2
 70
     0
  9
$DIMTOLJ
 70
     0
  9
$DIMTZIN
 70
     1
  9
$DIMALTZ
 70
     0
  9
$DIMALTTZ
 70
     0
  9
$DIMUPT
 70
     0
  9
$DIMDEC
 70
     2
  9
$DIMTDEC
 70
     2
  9
$DIMALTU
 70
     2
  9
$DIMALTTD
 70
     3
  9
$DIMTXSTY
  7
Standard
  9
$DIMAUNIT
 70
     0
  9
$DIMADEC
 70
     2
  9
$DIMALTRND
 40
0.0
  9
$DIMAZIN
 70
     0
  9
$DIMDSEP
 70
    44
  9
$DIMATFIT
 70
     3
  9
$DIMFRAC
 70
     0
  9
$DIMLDRBLK
  1

  9
$DIMLUNIT
 70
     2
  9
$DIMLWD
 70
    -2
  9
$DIMLWE
 70
    -2
  9
$DIMTMOVE
 70
     0
  9
$LUNITS
 70
     2
  9
$LUPREC
 70
     2
  9
$SKETCHINC
 40
1.0
  9
$FILLETRAD
 40
0.0
  9
$AUNITS
 70
     0
  9
$AUPREC
 70
     2
  9
$MENU
  1
.
  9
$ELEVATION
 40
0.0
  9
$PELEVATION
 40
0.0
  9
$THICKNESS
 40
0.0
  9
$LIMCHECK
 70
     0
  9
$CHAMFERA
 40
0.0
  9
$CHAMFERB
 40
0.0
  9
$CHAMFERC
 40
0.0
  9
$CHAMFERD
 40
0.0
  9
$SKPOLY
 70
     0
  9
$TDCREATE
 40
2461170.556304781
  9
$TDUCREATE
 40
2461170.264638114
  9
$TDUPDATE
 40
2461170.556305452
  9
$TDUUPDATE
 40
2461170.264638785
  9
$TDINDWG
 40
0.0000000116
  9
$TDUSRTIMER
 40
0.0000000116
  9
$USRTIMER
 70
     1
  9
$ANGBASE
 50
0.0
  9
$ANGDIR
 70
     0
  9
$PDMODE
 70
     0
  9
$PDSIZE
 40
-1.0
  9
$PLINEWID
 40
0.0
  9
$SPLFRAME
 70
     0
  9
$SPLINETYPE
 70
     6
  9
$SPLINESEGS
 70
     8
  9
$HANDSEED
  5
FA
  9
$SURFTAB1
 70
     6
  9
$SURFTAB2
 70
     6
  9
$SURFTYPE
 70
     6
  9
$SURFU
 70
     6
  9
$SURFV
 70
     6
  9
$UCSBASE
  2

  9
$UCSNAME
  2

  9
$UCSORG
 10
0.0
 20
0.0
 30
0.0
  9
$UCSXDIR
 10
1.0
 20
0.0
 30
0.0
  9
$UCSYDIR
 10
0.0
 20
1.0
 30
0.0
  9
$UCSORTHOREF
  2

  9
$UCSORTHOVIEW
 70
     0
  9
$UCSORGTOP
 10
0.0
 20
0.0
 30
0.0
  9
$UCSORGBOTTOM
 10
0.0
 20
0.0
 30
0.0
  9
$UCSORGLEFT
 10
0.0
 20
0.0
 30
0.0
  9
$UCSORGRIGHT
 10
0.0
 20
0.0
 30
0.0
  9
$UCSORGFRONT
 10
0.0
 20
0.0
 30
0.0
  9
$UCSORGBACK
 10
0.0
 20
0.0
 30
0.0
  9
$PUCSBASE
  2

  9
$PUCSNAME
  2

  9
$PUCSORG
 10
0.0
 20
0.0
 30
0.0
  9
$PUCSXDIR
 10
1.0
 20
0.0
 30
0.0
  9
$PUCSYDIR
 10
0.0
 20
1.0
 30
0.0
  9
$PUCSORTHOREF
  2

  9
$PUCSORTHOVIEW
 70
     0
  9
$PUCSORGTOP
 10
0.0
 20
0.0
 30
0.0
  9
$PUCSORGBOTTOM
 10
0.0
 20
0.0
 30
0.0
  9
$PUCSORGLEFT
 10
0.0
 20
0.0
 30
0.0
  9
$PUCSORGRIGHT
 10
0.0
 20
0.0
 30
0.0
  9
$PUCSORGFRONT
 10
0.0
 20
0.0
 30
0.0
  9
$PUCSORGBACK
 10
0.0
 20
0.0
 30
0.0
  9
$USERI1
 70
     0
  9
$USERI2
 70
     0
  9
$USERI3
 70
     0
  9
$USERI4
 70
     0
  9
$USERI5
 70
     0
  9
$USERR1
 40
0.0
  9
$USERR2
 40
0.0
  9
$USERR3
 40
0.0
  9
$USERR4
 40
0.0
  9
$USERR5
 40
0.0
  9
$WORLDVIEW
 70
     1
  9
$SHADEDGE
 70
     3
  9
$SHADEDIF
 70
    70
  9
$TILEMODE
 70
     1
  9
$MAXACTVP
 70
    64
  9
$PINSBASE
 10
0.0
 20
0.0
 30
0.0
  9
$PLIMCHECK
 70
     0
  9
$PEXTMIN
 10
1.0000000000E+20
 20
1.0000000000E+20
 30
1.0000000000E+20
  9
$PEXTMAX
 10
-1.0000000000E+20
 20
-1.0000000000E+20
 30
-1.0000000000E+20
  9
$PLIMMIN
 10
0.0
 20
0.0
  9
$PLIMMAX
 10
420.0
 20
297.0
  9
$UNITMODE
 70
     0
  9
$VISRETAIN
 70
     1
  9
$PLINEGEN
 70
     0
  9
$PSLTSCALE
 70
     1
  9
$TREEDEPTH
 70
  3020
  9
$CMLSTYLE
  2
Standard
  9
$CMLJUST
 70
     0
  9
$CMLSCALE
 40
20.0
  9
$PROXYGRAPHICS
 70
     1
  9
$MEASUREMENT
 70
     1
  9
$CELWEIGHT
370
    -1
  9
$ENDCAPS
280
     0
  9
$JOINSTYLE
280
     0
  9
$LWDISPLAY
290
     1
  9
$INSUNITS
 70
     4
  9
$HYPERLINKBASE
  1

  9
$STYLESHEET
  1

  9
$XEDIT
290
     1
  9
$CEPSNTYPE
380
     0
  9
$PSTYLEMODE
290
     1
  9
$FINGERPRINTGUID
  2
{401a289c-d328-49bd-9e9b-d26531e706bf}
  9
$VERSIONGUID
  2
{FAEB1C32-E019-11D5-929B-00C0DF256EC4}
  9
$EXTNAMES
290
     1
  9
$PSVPSCALE
 40
0.0
  9
$OLESTARTUP
290
     0
  0
ENDSEC
  0
SECTION
  2
CLASSES
  0
CLASS
  1
ACDBDICTIONARYWDFLT
  2
AcDbDictionaryWithDefault
  3
ObjectDBX Classes
 90
        0
280
     0
281
     0
  0
CLASS
  1
VISUALSTYLE
  2
AcDbVisualStyle
  3
ObjectDBX Classes
 90
     4095
280
     0
281
     0
  0
CLASS
  1
MATERIAL
  2
AcDbMaterial
  3
ObjectDBX Classes
 90
     1153
280
     0
281
     0
  0
CLASS
  1
SCALE
  2
AcDbScale
  3
ObjectDBX Classes
 90
     1153
280
     0
281
     0
  0
CLASS
  1
TABLESTYLE
  2
AcDbTableStyle
  3
ObjectDBX Classes
 90
     4095
280
     0
281
     0
  0
CLASS
  1
MLEADERSTYLE
  2
AcDbMLeaderStyle
  3
ACDB_MLEADERSTYLE_CLASS
 90
     4095
280
     0
281
     0
  0
CLASS
  1
SUN
  2
AcDbSun
  3
SCENEOE
 90
     1153
280
     0
281
     0
  0
CLASS
  1
ACDBPLACEHOLDER
  2
AcDbPlaceHolder
  3
ObjectDBX Classes
 90
        0
280
     0
281
     0
  0
CLASS
  1
LAYOUT
  2
AcDbLayout
  3
ObjectDBX Classes
 90
        0
280
     0
281
     0
  0
ENDSEC
  0
SECTION
  2
TABLES
  0
TABLE
  2
VPORT
  5
8
330
0
100
AcDbSymbolTable
 70
     1
  0
VPORT
  5
29
330
8
100
AcDbSymbolTableRecord
100
AcDbViewportTableRecord
  2
*Active
 70
     0
 10
0.0
 20
0.0
 11
1.0
 21
1.0
 12
107.95
 22
139.7
 13
0.0
 23
0.0
 14
10.0
 24
10.0
 15
10.0
 25
10.0
 16
0.0
 26
0.0
 36
1.0
 17
0.0
 27
0.0
 37
0.0
 40
279.4
 41
0.7727272727
 42
50.0
 43
0.0
 44
0.0
 50
0.0
 51
0.0
 71
     0
 72
  2000
 73
     1
 74
     3
 75
     0
 76
     0
 77
     0
 78
     0
281
     0
 65
     1
110
0.0
120
0.0
130
0.0
111
1.0
121
0.0
131
0.0
112
0.0
122
1.0
132
0.0
 79
     0
146
0.0
  0
ENDTAB
  0
TABLE
  2
LTYPE
  5
5
330
0
100
AcDbSymbolTable
 70
     6
  0
LTYPE
  5
14
330
5
100
AcDbSymbolTableRecord
100
AcDbLinetypeTableRecord
  2
ByBlock
 70
     0
  3

 72
    65
 73
     0
 40
0.0
  0
LTYPE
  5
15
330
5
100
AcDbSymbolTableRecord
100
AcDbLinetypeTableRecord
  2
ByLayer
 70
     0
  3

 72
    65
 73
     0
 40
0.0
  0
LTYPE
  5
16
330
5
100
AcDbSymbolTableRecord
100
AcDbLinetypeTableRecord
  2
Continuous
 70
     0
  3
Solid line
 72
    65
 73
     0
 40
0.0
  0
LTYPE
  5
5E
330
5
100
AcDbSymbolTableRecord
100
AcDbLinetypeTableRecord
  2
HIDDEN
 70
     0
  3
Hidden __ __ __ __ __ __ __ __ __ __ __ __ __ __
 72
    65
 73
     2
 40
1.905
 49
1.27
 74
     0
 49
-0.635
 74
     0
  0
LTYPE
  5
5F
330
5
100
AcDbSymbolTableRecord
100
AcDbLinetypeTableRecord
  2
PHANTOM
 70
     0
  3
Phantom ______  __  __  ______  __  __  ______
 72
    65
 73
     6
 40
12.7
 49
6.35
 74
     0
 49
-1.27
 74
     0
 49
1.27
 74
     0
 49
-1.27
 74
     0
 49
1.27
 74
     0
 49
-1.27
 74
     0
  0
LTYPE
  5
60
330
5
100
AcDbSymbolTableRecord
100
AcDbLinetypeTableRecord
  2
CENTER
 70
     0
  3
Center ____ _ ____ _ ____ _ ____ _ ____ _ ____
 72
    65
 73
     4
 40
10.16
 49
6.35
 74
     0
 49
-1.27
 74
     0
 49
1.27
 74
     0
 49
-1.27
 74
     0
  0
LTYPE
  5
61
330
5
100
AcDbSymbolTableRecord
100
AcDbLinetypeTableRecord
  2
CENTERX2
 70
     0
  3
Center (2x) ________  __  ________  __  _____
 72
    65
 73
     4
 40
20.32
 49
12.7
 74
     0
 49
-2.54
 74
     0
 49
2.54
 74
     0
 49
-2.54
 74
     0
  0
LTYPE
  5
62
330
5
100
AcDbSymbolTableRecord
100
AcDbLinetypeTableRecord
  2
DOT2
 70
     0
  3
Dot (.5x) ........................................
 72
    65
 73
     2
 40
0.635
 49
0.0
 74
     0
 49
-0.635
 74
     0
  0
ENDTAB
  0
TABLE
  2
LAYER
  5
2
330
0
100
AcDbSymbolTable
 70
     2
  0
LAYER
  5
10
330
2
100
AcDbSymbolTableRecord
100
AcDbLayerTableRecord
  2
0
 70
     0
 62
     7
  6
Continuous
370
    -3
390
F
  0
LAYER
  5
63
330
2
100
AcDbSymbolTableRecord
100
AcDbLayerTableRecord
  2
FORMAT
 70
     0
 62
     7
  6
Continuous
370
    -3
390
F
  0
ENDTAB
  0
TABLE
  2
STYLE
  5
3
330
0
100
AcDbSymbolTable
 70
     1
  0
STYLE
  5
11
330
3
100
AcDbSymbolTableRecord
100
AcDbTextStyleTableRecord
  2
Standard
 70
     0
 40
0.0
 41
1.0
 50
0.0
 71
     0
 42
3.175
  3
txt
  4

  0
ENDTAB
  0
TABLE
  2
VIEW
  5
6
330
0
100
AcDbSymbolTable
 70
     0
  0
ENDTAB
  0
TABLE
  2
UCS
  5
7
330
0
100
AcDbSymbolTable
 70
     0
  0
ENDTAB
  0
TABLE
  2
APPID
  5
9
330
0
100
AcDbSymbolTable
 70
     1
  0
APPID
  5
12
330
9
100
AcDbSymbolTableRecord
100
AcDbRegAppTableRecord
  2
ACAD
 70
     0
  0
ENDTAB
  0
TABLE
  2
DIMSTYLE
  5
A
330
0
100
AcDbSymbolTable
 70
     1
100
AcDbDimStyleTable
  0
DIMSTYLE
105
27
330
A
100
AcDbSymbolTableRecord
100
AcDbDimStyleTableRecord
  2
ISO-25
 70
     0
 41
2.5
 42
0.625
 43
3.75
 44
1.25
 73
     0
 74
     0
 77
     1
 78
     8
140
2.5
141
2.5
143
0.0393700787
147
0.625
171
     3
172
     1
178
     0
271
     2
272
     2
274
     3
278
    44
283
     0
284
     8
340
11
  0
ENDTAB
  0
TABLE
  2
BLOCK_RECORD
  5
1
330
0
100
AcDbSymbolTable
 70
     1
  0
BLOCK_RECORD
  5
1F
330
1
100
AcDbSymbolTableRecord
100
AcDbBlockTableRecord
  2
*Model_Space
340
22
  0
BLOCK_RECORD
  5
1B
330
1
100
AcDbSymbolTableRecord
100
AcDbBlockTableRecord
  2
*Paper_Space
340
1E
  0
BLOCK_RECORD
  5
23
330
1
100
AcDbSymbolTableRecord
100
AcDbBlockTableRecord
  2
*Paper_Space0
340
26
  0
ENDTAB
  0
ENDSEC
  0
SECTION
  2
BLOCKS
  0
BLOCK
  5
20
330
1F
100
AcDbEntity
  8
0
100
AcDbBlockBegin
  2
*Model_Space
 70
     0
 10
0.0
 20
0.0
 30
0.0
  3
*Model_Space
  1

  0
ENDBLK
  5
21
330
1F
100
AcDbEntity
  8
0
100
AcDbBlockEnd
  0
BLOCK
  5
1C
330
1B
100
AcDbEntity
 67
     1
  8
0
100
AcDbBlockBegin
  2
*Paper_Space
 70
     0
 10
0.0
 20
0.0
 30
0.0
  3
*Paper_Space
  1

  0
ENDBLK
  5
1D
330
1B
100
AcDbEntity
 67
     1
  8
0
100
AcDbBlockEnd
  0
BLOCK
  5
24
330
23
100
AcDbEntity
  8
0
100
AcDbBlockBegin
  2
*Paper_Space0
 70
     0
 10
0.0
 20
0.0
 30
0.0
  3
*Paper_Space0
  1

  0
ENDBLK
  5
25
330
23
100
AcDbEntity
  8
0
100
AcDbBlockEnd
  0
ENDSEC
  0
SECTION
  2
ENTITIES
  0
SPLINE
  5
64
330
1F
100
AcDbEntity
  8
0
  6
Continuous
 62
     7
370
    25
100
AcDbSpline
210
0.0
220
0.0
230
1.0
 70
     8
 71
     3
 72
    15
 73
    11
 74
     0
 42
0.00000001
 43
0.00000001
 40
0.0
 40
0.0
 40
0.0
 40
0.0
 40
0.0938179768806974
 40
0.1869890567304846
 40
0.2866257824959806
 40
0.3955426304629372
 40
0.5196306467549591
 40
0.6605029031124522
 40
0.8199816407626996
 40
1.0
 40
1.0
 40
1.0
 40
1.0
 10
129.430928910797
 20
228.9072052268191
 30
0.0
 10
129.4079596924607
 20
228.8207565820397
 30
0.0
 10
129.3621796339545
 20
228.6484553762326
 30
0.0
 10
129.3810987292666
 20
228.3730250386511
 30
0.0
 10
129.4650120446763
 20
228.0975962291513
 30
0.0
 10
129.6218487612669
 20
227.8215775167441
 30
0.0
 10
129.8436594407886
 20
227.544197621351
 30
0.0
 10
130.1268684835748
 20
227.2572367088019
 30
0.0
 10
130.484522850836
 20
226.9739535449727
 30
0.0
 10
130.7514558996674
 20
226.7941686050391
 30
0.0
 10
130.892997167376
 20
226.6988376281349
 30
0.0
  0
LINE
  5
65
330
1F
100
AcDbEntity
  8
0
  6
Continuous
 62
     7
370
    25
100
AcDbLine
 10
130.8929971674
 20
226.6988376281
 30
0.0
 11
130.9065662463
 21
226.6988376281
 31
0.0
  0
SPLINE
  5
66
330
1F
100
AcDbEntity
  8
0
  6
Continuous
 62
     7
370
    25
100
AcDbSpline
210
0.0
220
0.0
230
1.0
 70
     8
 71
     3
 72
    23
 73
    19
 74
     0
 42
0.00000001
 43
0.00000001
 40
0.0
 40
0.0
 40
0.0
 40
0.0
 40
0.1090800754339243
 40
0.2090587708910212
 40
0.2998317362871316
 40
0.3804822422471087
 40
0.4530347657238166
 40
0.515970365539729
 40
0.571045029357694
 40
0.6184767564863631
 40
0.6620731461882436
 40
0.7057314592282037
 40
0.7496129199034507
 40
0.7954991647392976
 40
0.8425790848447431
 40
0.8926369780306667
 40
0.9447332343878917
 40
1.0
 40
1.0
 40
1.0
 40
1.0
 10
130.9065662463233
 20
226.6988376281349
 30
0.0
 10
131.0680585627053
 20
226.59619036013
 30
0.0
 10
131.3775686637649
 20
226.3994604660676
 30
0.0
 10
131.8068503751028
 20
226.0954638548921
 30
0.0
 10
132.1905400983659
 20
225.8135926477779
 30
0.0
 10
132.523085597769
 20
225.5439955914452
 30
0.0
 10
132.8041470339929
 20
225.2891213813734
 30
0.0
 10
133.0341413355505
 20
225.0462749540696
 30
0.0
 10
133.2174275738395
 20
224.8205354549859
 30
0.0
 10
133.3506480668226
 20
224.6006642279982
 30
0.0
 10
133.4454220546479
 20
224.3835089133646
 30
0.0
 10
133.5088807490496
 20
224.1618954254281
 30
0.0
 10
133.550603319903
 20
223.9311871251544
 30
0.0
 10
133.5664462605102
 20
223.6912717153396
 30
0.0
 10
133.5603044691693
 20
223.4400369067925
 30
0.0
 10
133.5244430273661
 20
223.1803982606565
 30
0.0
 10
133.4678322298284
 20
222.9097348862183
 30
0.0
 10
133.4095384853587
 20
222.7305360884022
 30
0.0
 10
133.3795308844812
 20
222.6382907531349
 30
0.0
  0
SPLINE
  5
67
330
1F
100
AcDbEntity
  8
0
  6
Continuous
 62
     7
370
    25
100
AcDbSpline
210
0.0
220
0.0
230
1.0
 70
     8
 71
     3
 72
    15
 73
    11
 74
     0
 42
0.00000001
 43
0.00000001
 40
0.0
 40
0.0
 40
0.0
 40
0.0
 40
0.0605268249671776
 40
0.1220493071363185
 40
0.1834312996003545
 40
0.2453417735547649
 40
0.3094370029624188
 40
0.3748653344923644
 40
0.4423260311344843
 40
0.4904802359859621
 40
0.4904802359859621
 40
0.4904802359859621
 40
0.4904802359859621
 10
133.3795308844812
 20
222.6382907531349
 30
0.0
 10
133.3386022511473
 20
222.5254947099665
 30
0.0
 10
133.2560717145934
 20
222.2980471456198
 30
0.0
 10
133.0946327564536
 20
221.9718138810936
 30
0.0
 10
132.9120451788801
 20
221.6541731667276
 30
0.0
 10
132.6989427076371
 20
221.3495457417013
 30
0.0
 10
132.4576851497064
 20
221.0566879464652
 30
0.0
 10
132.1937096650663
 20
220.768741602302
 30
0.0
 10
131.9275106937779
 20
220.5278264195342
 30
0.0
 10
131.7515991088602
 20
220.3810788512367
 30
0.0
 10
131.677191450679
 20
220.3213732320555
 30
0.0
  0
LINE
  5
68
330
1F
100
AcDbEntity
  8
0
  6
Continuous
 62
     7
370
    25
100
AcDbLine
 10
131.6771914507
 20
220.3213732321
 30
0.0
 11
133.8694429768
 21
220.40228404
 31
0.0
  0
LINE
  5
69
330
1F
100
AcDbEntity
  8
0
  6
Continuous
 62
     7
370
    25
100
AcDbLine
 10
133.8694429768
 20
220.40228404
 30
0.0
 11
134.3917305001
 21
227.5053943568
 31
0.0
  0
LINE
  5
6A
330
1F
100
AcDbEntity
  8
0
  6
Continuous
 62
     7
370
    25
100
AcDbLine
 10
134.3917305001
 20
227.5053943568
 30
0.0
 11
134.1495761147
 21
226.8175670689
 31
0.0
  0
LINE
  5
6B
330
1F
100
AcDbEntity
  8
0
  6
Continuous
 62
     7
370
    25
100
AcDbLine
 10
134.1495761147
 20
226.8175670689
 30
0.0
 11
133.5932438779
 21
226.8175670689
 31
0.0
  0
SPLINE
  5
6C
330
1F
100
AcDbEntity
  8
0
  6
Continuous
 62
     7
370
    25
100
AcDbSpline
210
0.0
220
0.0
230
1.0
 70
     8
 71
     3
 72
    18
 73
    14
 74
     0
 42
0.00000001
 43
0.00000001
 40
0.0
 40
0.0
 40
0.0
 40
0.0
 40
0.0899624160813015
 40
0.1744302067826693
 40
0.2544281695603431
 40
0.3295241591865667
 40
0.4001559897516017
 40
0.4672504481373793
 40
0.5306637252886763
 40
0.5918583591496729
 40
0.6496908079282279
 40
0.7027188256921678
 40
0.7502827929031841
 40
0.7502827929031841
 40
0.7502827929031841
 40
0.7502827929031841
 10
133.5932438779023
 20
226.8175670689244
 30
0.0
 10
133.6164826458999
 20
226.9620660451918
 30
0.0
 10
133.6615408300148
 20
227.242238448381
 30
0.0
 10
133.698402705123
 20
227.6548178475418
 30
0.0
 10
133.7108103256095
 20
228.0442625822077
 30
0.0
 10
133.7089174653609
 20
228.4118808613332
 30
0.0
 10
133.6681767294375
 20
228.7561040500021
 30
0.0
 10
133.6129138804242
 20
229.0787224818662
 30
0.0
 10
133.5319581486535
 20
229.3805148986675
 30
0.0
 10
133.4231264493462
 20
229.6570716779289
 30
0.0
 10
133.2971113798467
 20
229.9076087412368
 30
0.0
 10
133.1513949364193
 20
230.1210337632583
 30
0.0
 10
133.043408712941
 20
230.24444072075
 30
0.0
 10
132.9885074354578
 20
230.2990661315399
 30
0.0
  0
LINE
  5
6D
330
1F
100
AcDbEntity
  8
0
  6
Continuous
 62
     7
370
    25
100
AcDbLine
 10
132.9885074355
 20
230.2990661315
 30
0.0
 11
131.9520979828
 21
230.3752727088
 31
0.0
  0
LINE
  5
6E
330
1F
100
AcDbEntity
  8
0
  6
Continuous
 62
     7
370
    25
100
AcDbLine
 10
131.9520979828
 20
230.3752727088
 30
0.0
 11
130.5972037938
 21
230.3197565482
 31
0.0
  0
SPLINE
  5
6F
330
1F
100
AcDbEntity
  8
0
  6
Continuous
 62
     7
370
    25
100
AcDbSpline
210
0.0
220
0.0
230
1.0
 70
     8
 71
     3
 72
    12
 73
     8
 74
     0
 42
0.00000001
 43
0.00000001
 40
0.4223331827691461
 40
0.4223331827691461
 40
0.4223331827691461
 40
0.4223331827691461
 40
0.4963879883415304
 40
0.6305504546579151
 40
0.7570962960420359
 40
0.8795302291524197
 40
1.0
 40
1.0
 40
1.0
 40
1.0
 10
130.5972037937939
 20
230.3197565481613
 30
0.0
 10
130.5302326150998
 20
230.2764766019997
 30
0.0
 10
130.3464886765353
 20
230.1475833490422
 30
0.0
 10
130.0712388383721
 20
229.9137481886038
 30
0.0
 10
129.7955654063032
 20
229.6056770632011
 30
0.0
 10
129.5761532949823
 20
229.2710788507162
 30
0.0
 10
129.4790753757905
 20
229.0278408128696
 30
0.0
 10
129.430928910797
 20
228.9072052268191
 30
0.0
  0
LINE
  5
70
330
1F
100
AcDbEntity
  8
0
  6
Continuous
 62
     7
370
    25
100
AcDbLine
 10
81.4676271016
 20
221.2915596676
 30
0.0
 11
85.8334782529
 21
234.1346928913
 31
0.0
  0
SPLINE
  5
71
330
1F
100
AcDbEntity
  8
0
  6
Continuous
 62
     7
370
    25
100
AcDbSpline
210
0.0
220
0.0
230
1.0
 70
     8
 71
     3
 72
    10
 73
     6
 74
     0
 42
0.00000001
 43
0.00000001
 40
0.0
 40
0.0
 40
0.0
 40
0.0
 40
0.1809048246194078
 40
0.3264743146626234
 40
0.4210099545268517
 40
0.4210099545268517
 40
0.4210099545268517
 40
0.4210099545268517
 10
85.83347825290227
 20
234.1346928912928
 30
0.0
 10
85.87226655141548
 20
234.2571731120866
 30
0.0
 10
85.94226680265625
 20
234.4782100370416
 30
0.0
 10
85.99972581045769
 20
234.7729817098976
 30
0.0
 10
86.00424549840764
 20
234.9439252025378
 30
0.0
 10
85.99743226671855
 20
235.0110996580204
 30
0.0
  0
LINE
  5
72
330
1F
100
AcDbEntity
  8
0
  6
Continuous
 62
     7
370
    25
100
AcDbLine
 10
85.9974322667
 20
235.011099658
 30
0.0
 11
79.4485070358
 21
235.1126885129
 31
0.0
  0
LINE
  5
73
330
1F
100
AcDbEntity
  8
0
  6
Continuous
 62
     7
370
    25
100
AcDbLine
 10
79.4485070358
 20
235.1126885129
 30
0.0
 11
79.4485070358
 21
220.4230906364
 31
0.0
  0
LINE
  5
74
330
1F
100
AcDbEntity
  8
0
  6
Continuous
 62
     7
370
    25
100
AcDbLine
 10
79.4485070358
 20
220.4230906364
 30
0.0
 11
81.0308732319
 21
220.4025487629
 31
0.0
  0
SPLINE
  5
75
330
1F
100
AcDbEntity
  8
0
  6
Continuous
 62
     7
370
    25
100
AcDbSpline
210
0.0
220
0.0
230
1.0
 70
     8
 71
     3
 72
    10
 73
     6
 74
     0
 42
0.00000001
 43
0.00000001
 40
0.6218405873404176
 40
0.6218405873404176
 40
0.6218405873404176
 40
0.6218405873404176
 40
0.706180509488095
 40
0.8423496243974421
 40
1.0
 40
1.0
 40
1.0
 40
1.0
 10
81.03087323192868
 20
220.4025487628883
 30
0.0
 10
81.07594875277287
 20
220.4612714294371
 30
0.0
 10
81.18409535610535
 20
220.6217955264891
 30
0.0
 10
81.33277454346056
 20
220.9193833413985
 30
0.0
 10
81.42053745500058
 20
221.1615980865127
 30
0.0
 10
81.46762710158647
 20
221.2915596676086
 30
0.0
  0
LINE
  5
76
330
1F
100
AcDbEntity
  8
0
  6
Continuous
 62
     7
370
    25
100
AcDbLine
 10
90.7770380746
 20
234.9369570066
 30
0.0
 11
88.3947223895
 21
234.9739121883
 31
0.0
  0
SPLINE
  5
77
330
1F
100
AcDbEntity
  8
0
  6
Continuous
 62
     7
370
    25
100
AcDbSpline
210
0.0
220
0.0
230
1.0
 70
     8
 71
     3
 72
    10
 73
     6
 74
     0
 42
0.00000001
 43
0.00000001
 40
0.6796521714563785
 40
0.6796521714563785
 40
0.6796521714563785
 40
0.6796521714563785
 40
0.730429808516104
 40
0.8546379887860998
 40
1.0
 40
1.0
 40
1.0
 40
1.0
 10
88.39472238948198
 20
234.9739121883478
 30
0.0
 10
88.3671913127419
 20
234.9348742272947
 30
0.0
 10
88.27786560602756
 20
234.7966313527191
 30
0.0
 10
88.14194120469445
 20
234.5263928806962
 30
0.0
 10
88.05707717992667
 20
234.2873430868139
 30
0.0
 10
88.01131542395491
 20
234.1584387794507
 30
0.0
  0
LINE
  5
78
330
1F
100
AcDbEntity
  8
0
  6
Continuous
 62
     7
370
    25
100
AcDbLine
 10
88.011315424
 20
234.1584387795
 30
0.0
 11
86.0336221674
 21
228.337303911
 31
0.0
  0
SPLINE
  5
79
330
1F
100
AcDbEntity
  8
0
  6
Continuous
 62
     7
370
    25
100
AcDbSpline
210
0.0
220
0.0
230
1.0
 70
     8
 71
     3
 72
    11
 73
     7
 74
     0
 42
0.00000001
 43
0.00000001
 40
0.0
 40
0.0
 40
0.0
 40
0.0
 40
0.187861788471952
 40
0.3879530224043283
 40
0.6450315332120131
 40
1.0
 40
1.0
 40
1.0
 40
1.0
 10
86.03362216737595
 20
228.3373039110296
 30
0.0
 10
86.08563758882728
 20
228.3350740933915
 30
0.0
 10
86.19305453682836
 20
228.3304693012242
 30
0.0
 10
86.3716385608571
 20
228.3221389053687
 30
0.0
 10
86.59673625580703
 20
228.3196252845775
 30
0.0
 10
86.76635473790533
 20
228.3200792666649
 30
0.0
 10
86.86472825290227
 20
228.3203425623454
 30
0.0
  0
SPLINE
  5
7A
330
1F
100
AcDbEntity
  8
0
  6
Continuous
 62
     7
370
    25
100
AcDbSpline
210
0.0
220
0.0
230
1.0
 70
     8
 71
     3
 72
    23
 73
    19
 74
     0
 42
0.00000001
 43
0.00000001
 40
0.0
 40
0.0
 40
0.0
 40
0.0
 40
0.0768027369784671
 40
0.14942973386378
 40
0.217174664180313
 40
0.2807192444095468
 40
0.3398857511733665
 40
0.3961204089686947
 40
0.4490286433579026
 40
0.4993968669602979
 40
0.5498506623705272
 40
0.6031168711727297
 40
0.6590083969241085
 40
0.7187455697791564
 40
0.7823543336909146
 40
0.8503792064770391
 40
0.9228519306807077
 40
0.9999999999999999
 40
0.9999999999999999
 40
0.9999999999999999
 40
0.9999999999999999
 10
86.86472825290227
 20
228.3203425623454
 30
0.0
 10
87.04457285985256
 20
228.3231648466008
 30
0.0
 10
87.39448398035016
 20
228.3286559684249
 30
0.0
 10
87.90213315810415
 20
228.3647071772551
 30
0.0
 10
88.37550551278777
 20
228.4295386140958
 30
0.0
 10
88.81332027576933
 20
228.5162740266287
 30
0.0
 10
89.2175158876704
 20
228.6282802868283
 30
0.0
 10
89.58779646979919
 20
228.7653005864269
 30
0.0
 10
89.92219689912773
 20
228.9331340261276
 30
0.0
 10
90.22765460378291
 20
229.1250662401094
 30
0.0
 10
90.50682261409176
 20
229.355017915353
 30
0.0
 10
90.77077661431166
 20
229.6202922129119
 30
0.0
 10
91.02416381453513
 20
229.9247315798399
 30
0.0
 10
91.26042507545202
 20
230.2723227723183
 30
0.0
 10
91.48364967703664
 20
230.6612421669645
 30
0.0
 10
91.69732195918634
 20
231.0890372612172
 30
0.0
 10
91.89787733775714
 20
231.5579988480221
 30
0.0
 10
92.01490981617019
 20
231.8883083247317
 30
0.0
 10
92.07525456869175
 20
232.0586238123454
 30
0.0
  0
SPLINE
  5
7B
330
1F
100
AcDbEntity
  8
0
  6
Continuous
 62
     7
370
    25
100
AcDbSpline
210
0.0
220
0.0
230
1.0
 70
     8
 71
     3
 72
    15
 73
    11
 74
     0
 42
0.00000001
 43
0.00000001
 40
0.0
 40
0.0
 40
0.0
 40
0.0
 40
0.0954492433298824
 40
0.1821526772365738
 40
0.2598378709226644
 40
0.3292759606733013
 40
0.3908704992655005
 40
0.4453064974880953
 40
0.4926829775319453
 40
0.5310027127219311
 40
0.5310027127219311
 40
0.5310027127219311
 40
0.5310027127219311
 10
92.07525456869175
 20
232.0586238123454
 30
0.0
 10
92.12666754783999
 20
232.2153001324226
 30
0.0
 10
92.22478264514041
 20
232.5142968574465
 30
0.0
 10
92.33887554805017
 20
232.9485855111976
 30
0.0
 10
92.42629044650118
 20
233.3429858890434
 30
0.0
 10
92.4803264589398
 20
233.6999531909064
 30
0.0
 10
92.49399530563069
 20
234.020602896313
 30
0.0
 10
92.47899437204916
 20
234.3028401133078
 30
0.0
 10
92.43629755533142
 20
234.5422281989781
 30
0.0
 10
92.38113345361057
 20
234.6808835035456
 30
0.0
 10
92.3502983406213
 20
234.739549914779
 30
0.0
  0
LINE
  5
7C
330
1F
100
AcDbEntity
  8
0
  6
Continuous
 62
     7
370
    25
100
AcDbLine
 10
92.3502983406
 20
234.7395499148
 30
0.0
 11
90.7770380746
 21
234.9369570066
 31
0.0
  0
SPLINE
  5
7D
330
1F
100
AcDbEntity
  8
0
  6
Continuous
 62
     7
370
    25
100
AcDbSpline
210
0.0
220
0.0
230
1.0
 70
     8
 71
     3
 72
    18
 73
    14
 74
     0
 42
0.00000001
 43
0.00000001
 40
0.3516063162636447
 40
0.3516063162636447
 40
0.3516063162636447
 40
0.3516063162636447
 40
0.3707380048029634
 40
0.4237164837882241
 40
0.4755572282217662
 40
0.5281828074992359
 40
0.5842167149101284
 40
0.6430984205148381
 40
0.7058799378049745
 40
0.7728669285985207
 40
0.8441005041516851
 40
0.9193893362724224
 40
1.0
 40
1.0
 40
1.0
 40
1.0
 10
86.90690601205436
 20
220.3262676071219
 30
0.0
 10
86.94746862206875
 20
220.3454068387798
 30
0.0
 10
87.09907326293163
 20
220.4202885582208
 30
0.0
 10
87.35096329256307
 20
220.5656767845303
 30
0.0
 10
87.65061816377104
 20
220.7820278536751
 30
0.0
 10
87.9300460836984
 20
221.0347834144286
 30
0.0
 10
88.19288704622949
 20
221.3270980316486
 30
0.0
 10
88.4450074978525
 20
221.6589386814753
 30
0.0
 10
88.68535958476491
 20
222.0302763727026
 30
0.0
 10
88.91629318340946
 20
222.4410923616395
 30
0.0
 10
89.13174095085823
 20
222.8928709562113
 30
0.0
 10
89.33687248960958
 20
223.3842085251554
 30
0.0
 10
89.45816102063404
 20
223.728814738099
 30
0.0
 10
89.52087545684964
 20
223.9069996347138
 30
0.0
  0
SPLINE
  5
7E
330
1F
100
AcDbEntity
  8
0
  6
Continuous
 62
     7
370
    25
100
AcDbSpline
210
0.0
220
0.0
230
1.0
 70
     8
 71
     3
 72
    23
 73
    19
 74
     0
 42
0.00000001
 43
0.00000001
 40
0.0
 40
0.0
 40
0.0
 40
0.0
 40
0.0870627932086807
 40
0.1660948382274903
 40
0.237436755044189
 40
0.3015982568929019
 40
0.3596447318927052
 40
0.4113003089601548
 40
0.458786687663188
 40
0.5031078905801584
 40
0.5472881468458789
 40
0.5939403360887268
 40
0.6449330681962903
 40
0.7018924389550524
 40
0.765557141886871
 40
0.8356725275979837
 40
0.9137173213705543
 40
0.9999999999999999
 40
0.9999999999999999
 40
0.9999999999999999
 40
0.9999999999999999
 10
89.52087545684964
 20
223.9069996347138
 30
0.0
 10
89.57844783996426
 20
224.0827431462462
 30
0.0
 10
89.68828207922274
 20
224.4180194341035
 30
0.0
 10
89.81149571766903
 20
224.9075213028862
 30
0.0
 10
89.89045133779486
 20
225.3565509915534
 30
0.0
 10
89.93152170287064
 20
225.7661934627768
 30
0.0
 10
89.9257631505966
 20
226.1362183876114
 30
0.0
 10
89.88073802456583
 20
226.4680426844882
 30
0.0
 10
89.79026015984793
 20
226.7607863230913
 30
0.0
 10
89.65147846838619
 20
227.0163831398351
 30
0.0
 10
89.46278024917633
 20
227.2355724140008
 30
0.0
 10
89.22241645458264
 20
227.4198833438342
 30
0.0
 10
88.93247778416756
 20
227.576266930497
 30
0.0
 10
88.59018594395026
 20
227.704507780867
 30
0.0
 10
88.1956453269849
 20
227.7993502229221
 30
0.0
 10
87.75104823841353
 20
227.869759870625
 30
0.0
 10
87.25460363929369
 20
227.914211213655
 30
0.0
 10
86.90553618483113
 20
227.9180428654271
 30
0.0
 10
86.7222529239549
 20
227.920054733398
 30
0.0
  0
SPLINE
  5
7F
330
1F
100
AcDbEntity
  8
0
  6
Continuous
 62
     7
370
    25
100
AcDbSpline
210
0.0
220
0.0
230
1.0
 70
     8
 71
     3
 72
    11
 73
     7
 74
     0
 42
0.00000001
 43
0.00000001
 40
0.0
 40
0.0
 40
0.0
 40
0.0
 40
0.3520620449662349
 40
0.6110818288134705
 40
0.8134568002705944
 40
0.9999999999999999
 40
0.9999999999999999
 40
0.9999999999999999
 40
0.9999999999999999
 10
86.7222529239549
 20
227.920054733398
 30
0.0
 10
86.62386961370866
 20
227.9205935200994
 30
0.0
 10
86.45310353991687
 20
227.921528704018
 30
0.0
 10
86.2258741162686
 20
227.916291231037
 30
0.0
 10
86.04474283733555
 20
227.9153987793968
 30
0.0
 10
85.93635171182588
 20
227.9070823365603
 30
0.0
 10
85.88436229895491
 20
227.9030933847139
 30
0.0
  0
LINE
  5
80
330
1F
100
AcDbEntity
  8
0
  6
Continuous
 62
     7
370
    25
100
AcDbLine
 10
85.884362299
 20
227.9030933847
 30
0.0
 11
83.7709782529
 21
221.6782784176
 31
0.0
  0
SPLINE
  5
81
330
1F
100
AcDbEntity
  8
0
  6
Continuous
 62
     7
370
    25
100
AcDbSpline
210
0.0
220
0.0
230
1.0
 70
     8
 71
     3
 72
    14
 73
    10
 74
     0
 42
0.00000001
 43
0.00000001
 40
0.0
 40
0.0
 40
0.0
 40
0.0
 40
0.1158474984092425
 40
0.2182674768125599
 40
0.3090016519426758
 40
0.3882089927845153
 40
0.4561294528552072
 40
0.5118525469253
 40
0.5136783396473871
 40
0.5136783396473871
 40
0.5136783396473871
 40
0.5136783396473871
 10
83.77097825290227
 20
221.6782784176086
 30
0.0
 10
83.73852679931751
 20
221.5824143073707
 30
0.0
 10
83.67738523829885
 20
221.4017973950868
 30
0.0
 10
83.60274144278398
 20
221.142325612996
 30
0.0
 10
83.54420144163122
 20
220.9116653617096
 30
0.0
 10
83.50276040809878
 20
220.7079895717051
 30
0.0
 10
83.47786076801579
 20
220.5323311073455
 30
0.0
 10
83.47214291647657
 20
220.4228256597188
 30
0.0
 10
83.47247672085095
 20
220.3724505950573
 30
0.0
 10
83.47249055029462
 20
220.3708523108851
 30
0.0
  0
LINE
  5
82
330
1F
100
AcDbEntity
  8
0
  6
Continuous
 62
     7
370
    25
100
AcDbLine
 10
83.4724905503
 20
220.3708523109
 30
0.0
 11
86.9069060121
 21
220.3262676071
 31
0.0
  0
SPLINE
  5
83
330
1F
100
AcDbEntity
  8
0
  6
Continuous
 62
     7
370
    25
100
AcDbSpline
210
0.0
220
0.0
230
1.0
 70
     8
 71
     3
 72
    17
 73
    13
 74
     0
 42
0.00000001
 43
0.00000001
 40
0.1381588148883584
 40
0.1381588148883584
 40
0.1381588148883584
 40
0.1381588148883584
 40
0.1385518447791064
 40
0.1888199022989627
 40
0.2416688833742097
 40
0.2975256945359961
 40
0.3581676414484112
 40
0.4225204567298613
 40
0.5580130346900879
 40
0.6981625098862261
 40
0.8452268638508247
 40
0.9999999999999999
 40
0.9999999999999999
 40
0.9999999999999999
 40
0.9999999999999999
 10
96.80906781114842
 20
220.218882858398
 30
0.0
 10
96.80966636776968
 20
220.219122414918
 30
0.0
 10
96.886804164811
 20
220.2500397531792
 30
0.0
 10
97.04033462406863
 20
220.3234276142877
 30
0.0
 10
97.26475516212663
 20
220.4566717782388
 30
0.0
 10
97.49151910233556
 20
220.6177946092343
 30
0.0
 10
97.71627093487584
 20
220.8118507982553
 30
0.0
 10
98.02365693938812
 20
221.1089620517668
 30
0.0
 10
98.38200400869388
 20
221.5383463398911
 30
0.0
 10
98.7692586391246
 20
222.114903777942
 30
0.0
 10
99.09867455149467
 20
222.7631087860671
 30
0.0
 10
99.27040137322108
 20
223.2277504012779
 30
0.0
 10
99.35845769369175
 20
223.4660045689243
 30
0.0
  0
LINE
  5
84
330
1F
100
AcDbEntity
  8
0
  6
Continuous
 62
     7
370
    25
100
AcDbLine
 10
99.3584576937
 20
223.4660045689
 30
0.0
 11
100.4236303911
 21
226.6004618058
 31
0.0
  0
SPLINE
  5
85
330
1F
100
AcDbEntity
  8
0
  6
Continuous
 62
     7
370
    25
100
AcDbSpline
210
0.0
220
0.0
230
1.0
 70
     8
 71
     3
 72
    15
 73
    11
 74
     0
 42
0.00000001
 43
0.00000001
 40
0.0
 40
0.0
 40
0.0
 40
0.0
 40
0.1247050756218151
 40
0.2614119478186908
 40
0.4115886147031973
 40
0.5736939329341508
 40
0.7264521876223
 40
0.8487265313117356
 40
0.9395533451640622
 40
0.9999999999999999
 40
0.9999999999999999
 40
0.9999999999999999
 40
0.9999999999999999
 10
100.4236303910602
 20
226.6004618057665
 30
0.0
 10
100.3127264651863
 20
226.529681747176
 30
0.0
 10
100.0802450594465
 20
226.3813096549369
 30
0.0
 10
99.69260069287857
 20
226.1851420853773
 30
0.0
 10
99.26409625171665
 20
225.9837447471101
 30
0.0
 10
98.8084907542234
 20
225.8018707334438
 30
0.0
 10
98.3770781185038
 20
225.6396613651368
 30
0.0
 10
98.0184590694665
 20
225.4975657801627
 30
0.0
 10
97.75167706023733
 20
225.3876311955881
 30
0.0
 10
97.60784935939095
 20
225.3186211052212
 30
0.0
 10
97.55037792395491
 20
225.2910456873454
 30
0.0
  0
SPLINE
  5
86
330
1F
100
AcDbEntity
  8
0
  6
Continuous
 62
     7
370
    25
100
AcDbSpline
210
0.0
220
0.0
230
1.0
 70
     8
 71
     3
 72
    19
 73
    15
 74
     0
 42
0.00000001
 43
0.00000001
 40
0.0
 40
0.0
 40
0.0
 40
0.0
 40
0.1048442883299831
 40
0.2047097632004019
 40
0.3027579188918431
 40
0.3991206549467017
 40
0.4505492125855644
 40
0.5081578537091319
 40
0.5726185627111506
 40
0.6436444514669126
 40
0.7217368574432678
 40
0.807803081722929
 40
0.8998607763454471
 40
0.9999999999999999
 40
0.9999999999999999
 40
0.9999999999999999
 40
0.9999999999999999
 10
97.55037792395491
 20
225.2910456873454
 30
0.0
 10
97.43697565786903
 20
225.2290021671411
 30
0.0
 10
97.21555633778397
 20
225.1078614304216
 30
0.0
 10
96.9127365939707
 20
224.8879410287474
 30
0.0
 10
96.64821002063115
 20
224.6389095628837
 30
0.0
 10
96.45074639625486
 20
224.4083072911093
 30
0.0
 10
96.30569918384693
 20
224.2006185609544
 30
0.0
 10
96.19845874389091
 20
224.0155447341833
 30
0.0
 10
96.08587200481196
 20
223.8058928846953
 30
0.0
 10
95.97528417469454
 20
223.5670026914081
 30
0.0
 10
95.85916774854397
 20
223.3015170983996
 30
0.0
 10
95.74173848687094
 20
223.0084408262231
 30
0.0
 10
95.6222739313054
 20
222.6870576328588
 30
0.0
 10
95.54506630536683
 20
222.4631939345433
 30
0.0
 10
95.50483927263912
 20
222.3465555557665
 30
0.0
  0
SPLINE
  5
87
330
1F
100
AcDbEntity
  8
0
  6
Continuous
 62
     7
370
    25
100
AcDbSpline
210
0.0
220
0.0
230
1.0
 70
     8
 71
     3
 72
    14
 73
    10
 74
     0
 42
0.00000001
 43
0.00000001
 40
0.0
 40
0.0
 40
0.0
 40
0.0
 40
0.1902438104174337
 40
0.3535386785752028
 40
0.4902937782623225
 40
0.6053279860069507
 40
0.7039752096782876
 40
0.7946164292478765
 40
0.8038063176790795
 40
0.8038063176790795
 40
0.8038063176790795
 40
0.8038063176790795
 10
95.50483927263912
 20
222.3465555557665
 30
0.0
 10
95.44867332667006
 20
222.1757927870924
 30
0.0
 10
95.34429760860988
 20
221.8584566096135
 30
0.0
 10
95.25919073158883
 20
221.4023886730411
 30
0.0
 10
95.23106371862451
 20
221.0100440732543
 30
0.0
 10
95.2735707978124
 20
220.6794402996924
 30
0.0
 10
95.38698655001787
 20
220.4090551041943
 30
0.0
 10
95.52463147931229
 20
220.2752553159287
 30
0.0
 10
95.60420932911246
 20
220.2235135720761
 30
0.0
 10
95.61161646778646
 20
220.218882858398
 30
0.0
  0
LINE
  5
88
330
1F
100
AcDbEntity
  8
0
  6
Continuous
 62
     7
370
    25
100
AcDbLine
 10
95.6116164678
 20
220.2188828584
 30
0.0
 11
96.8090678111
 21
220.2188828584
 31
0.0
  0
SPLINE
  5
89
330
1F
100
AcDbEntity
  8
0
  6
Continuous
 62
     7
370
    25
100
AcDbSpline
210
0.0
220
0.0
230
1.0
 70
     8
 71
     3
 72
    19
 73
    15
 74
     0
 42
0.00000001
 43
0.00000001
 40
0.0
 40
0.0
 40
0.0
 40
0.0
 40
0.0566535812235702
 40
0.1330876355208747
 40
0.238731716618165
 40
0.3816395198637434
 40
0.4586539473716912
 40
0.5307221572238325
 40
0.598773492102679
 40
0.6674760507657049
 40
0.7404041469602956
 40
0.8196751334627339
 40
0.9056297779732876
 40
1.0
 40
1.0
 40
1.0
 40
1.0
 10
97.99815752921806
 20
229.9995160820822
 30
0.0
 10
97.99567598612623
 20
229.96462445622
 30
0.0
 10
97.98984647463898
 20
229.8826588701936
 30
0.0
 10
98.08666443617892
 20
229.7644039331537
 30
0.0
 10
98.23225258557825
 20
229.6392561460568
 30
0.0
 10
98.40054809815967
 20
229.5377456263152
 30
0.0
 10
98.54443634021221
 20
229.4379666111436
 30
0.0
 10
98.63746039176041
 20
229.3459243705221
 30
0.0
 10
98.70846181480532
 20
229.2415982319107
 30
0.0
 10
98.75194905044997
 20
229.1227501265715
 30
0.0
 10
98.77639614260673
 20
228.992010100191
 30
0.0
 10
98.77481593170776
 20
228.8486067984347
 30
0.0
 10
98.75080585640802
 20
228.69432336266
 30
0.0
 10
98.71768870977897
 20
228.5913416877832
 30
0.0
 10
98.70035736474438
 20
228.5374478255033
 30
0.0
  0
SPLINE
  5
8A
330
1F
100
AcDbEntity
  8
0
  6
Continuous
 62
     7
370
    25
100
AcDbSpline
210
0.0
220
0.0
230
1.0
 70
     8
 71
     3
 72
    15
 73
    11
 74
     0
 42
0.00000001
 43
0.00000001
 40
0.0
 40
0.0
 40
0.0
 40
0.0
 40
0.1248900137485722
 40
0.2482424104425052
 40
0.3775654345008194
 40
0.512283696305184
 40
0.6448085061022961
 40
0.7675608239623898
 40
0.8849582690832178
 40
1.0
 40
1.0
 40
1.0
 40
1.0
 10
98.70035736474438
 20
228.5374478255033
 30
0.0
 10
98.66596037098171
 20
228.4500466766272
 30
0.0
 10
98.59758987131305
 20
228.2763204416686
 30
0.0
 10
98.44099785917771
 20
228.0384765674821
 30
0.0
 10
98.25252882540127
 20
227.8158701651924
 30
0.0
 10
98.02223148528923
 20
227.6261892938684
 30
0.0
 10
97.78170031712435
 20
227.4579093886221
 30
0.0
 10
97.52586371581906
 20
227.3426356506497
 30
0.0
 10
97.26878160855803
 20
227.265500082408
 30
0.0
 10
97.09408019485844
 20
227.2563207475247
 30
0.0
 10
97.00761476606017
 20
227.2517775952402
 30
0.0
  0
SPLINE
  5
8B
330
1F
100
AcDbEntity
  8
0
  6
Continuous
 62
     7
370
    25
100
AcDbSpline
210
0.0
220
0.0
230
1.0
 70
     8
 71
     3
 72
    15
 73
    11
 74
     0
 42
0.00000001
 43
0.00000001
 40
0.0
 40
0.0
 40
0.0
 40
0.0
 40
0.1291427008691872
 40
0.2436537911031395
 40
0.3499300357749153
 40
0.4587196085527964
 40
0.5747123112424204
 40
0.6991756633853913
 40
0.8395582390249673
 40
1.0
 40
1.0
 40
1.0
 40
1.0
 10
97.00761476606017
 20
227.2517775952402
 30
0.0
 10
96.91434723199158
 20
227.2564049024226
 30
0.0
 10
96.7383791895881
 20
227.2651352521056
 30
0.0
 10
96.49402405133306
 20
227.3454431788454
 30
0.0
 10
96.30332761438451
 20
227.4932049503699
 30
0.0
 10
96.15853323385716
 20
227.6878704801148
 30
0.0
 10
96.08161936994841
 20
227.9313403136295
 30
0.0
 10
96.05367634390157
 20
228.2063914770629
 30
0.0
 10
96.09314160947324
 20
228.5130676325222
 30
0.0
 10
96.15414820821086
 20
228.721441238107
 30
0.0
 10
96.18668548974438
 20
228.8325752926086
 30
0.0
  0
SPLINE
  5
8C
330
1F
100
AcDbEntity
  8
0
  6
Continuous
 62
     7
370
    25
100
AcDbSpline
210
0.0
220
0.0
230
1.0
 70
     8
 71
     3
 72
    19
 73
    15
 74
     0
 42
0.00000001
 43
0.00000001
 40
0.0
 40
0.0
 40
0.0
 40
0.0
 40
0.0553538016940209
 40
0.110478512692883
 40
0.1650770130327883
 40
0.2210595122845209
 40
0.2780050336786232
 40
0.3368091491865216
 40
0.3970549351033462
 40
0.4603825364892821
 40
0.5248243830891919
 40
0.5895692854335594
 40
0.655223996811903
 40
0.6937070680871616
 40
0.6937070680871616
 40
0.6937070680871616
 40
0.6937070680871616
 10
96.18668548974438
 20
228.8325752926086
 30
0.0
 10
96.2208825437099
 20
228.9261426352892
 30
0.0
 10
96.28913512158113
 20
229.1128900770119
 30
0.0
 10
96.42660134147754
 20
229.3768341740273
 30
0.0
 10
96.58786252349707
 20
229.6277999145109
 30
0.0
 10
96.77482095098541
 20
229.8645599266263
 30
0.0
 10
96.98623844672863
 20
230.0901483104066
 30
0.0
 10
97.22370303004482
 20
230.300078340447
 30
0.0
 10
97.4883781200735
 20
230.4942939210469
 30
0.0
 10
97.77416009757174
 20
230.6752509157619
 30
0.0
 10
98.07782871266338
 20
230.8421806810709
 30
0.0
 10
98.39863211063141
 20
230.9837847438603
 30
0.0
 10
98.68358338460222
 20
231.0894936351797
 30
0.0
 10
98.86296147017073
 20
231.1433617591302
 30
0.0
 10
98.92961030876937
 20
231.1620266930576
 30
0.0
  0
LINE
  5
8D
330
1F
100
AcDbEntity
  8
0
  6
Continuous
 62
     7
370
    25
100
AcDbLine
 10
98.9296103088
 20
231.1620266931
 30
0.0
 11
94.9555143618
 21
233.4462282341
 31
0.0
  0
SPLINE
  5
8E
330
1F
100
AcDbEntity
  8
0
  6
Continuous
 62
     7
370
    25
100
AcDbSpline
210
0.0
220
0.0
230
1.0
 70
     8
 71
     3
 72
    11
 73
     7
 74
     0
 42
0.00000001
 43
0.00000001
 40
0.80346532333723
 40
0.80346532333723
 40
0.80346532333723
 40
0.80346532333723
 40
0.8080310923538968
 40
0.8667633138571591
 40
0.9305195666673179
 40
0.9999999999999999
 40
0.9999999999999999
 40
0.9999999999999999
 40
0.9999999999999999
 10
94.95551436181319
 20
233.4462282341332
 30
0.0
 10
94.95549721857059
 20
233.4359953572651
 30
0.0
 10
94.9544644728434
 20
233.2941372362323
 30
0.0
 10
94.93053393072026
 20
233.0098504307078
 30
0.0
 10
94.84857509363266
 20
232.5867000765197
 30
0.0
 10
94.758184929692
 20
232.3020480558721
 30
0.0
 10
94.71104815421806
 20
232.153607364977
 30
0.0
  0
SPLINE
  5
8F
330
1F
100
AcDbEntity
  8
0
  6
Continuous
 62
     7
370
    25
100
AcDbSpline
210
0.0
220
0.0
230
1.0
 70
     8
 71
     3
 72
    23
 73
    19
 74
     0
 42
0.00000001
 43
0.00000001
 40
0.0
 40
0.0
 40
0.0
 40
0.0
 40
0.0538536162161772
 40
0.1078903660556832
 40
0.1633947035747926
 40
0.2199727719348255
 40
0.2784611426062548
 40
0.338771450904694
 40
0.4015783804784543
 40
0.4667846914549833
 40
0.5330210305678506
 40
0.5990893624009566
 40
0.6645722746551639
 40
0.7305862096638706
 40
0.7965337878774434
 40
0.8637058764999833
 40
0.9312928327097197
 40
1.0
 40
1.0
 40
1.0
 40
1.0
 10
94.71104815421806
 20
232.153607364977
 30
0.0
 10
94.66714127250285
 20
232.0327036125576
 30
0.0
 10
94.5791782001327
 20
231.7904849646274
 30
0.0
 10
94.40121054719519
 20
231.4426861280624
 30
0.0
 10
94.19628469660367
 20
231.1028309205787
 30
0.0
 10
93.95124977677918
 20
230.7772058149344
 30
0.0
 10
93.68156908335767
 20
230.4567651506449
 30
0.0
 10
93.37347237399219
 20
230.1511976597985
 30
0.0
 10
93.03349086814447
 20
229.856983315632
 30
0.0
 10
92.66670129780013
 20
229.5730113358196
 30
0.0
 10
92.27460089971322
 20
229.3108779633234
 30
0.0
 10
91.86846448695141
 20
229.0699849121585
 30
0.0
 10
91.44892029753387
 20
228.8540994075064
 30
0.0
 10
91.01532310607331
 20
228.6688246861926
 30
0.0
 10
90.5677457751139
 20
228.5083535616427
 30
0.0
 10
90.10796332259808
 20
228.3734097687463
 30
0.0
 10
89.63471538120429
 20
228.2628770749263
 30
0.0
 10
89.31319802209347
 20
228.2131246928351
 30
0.0
 10
89.15111805553386
 20
228.1880440426086
 30
0.0
  0
SPLINE
  5
90
330
1F
100
AcDbEntity
  8
0
  6
Continuous
 62
     7
370
    25
100
AcDbSpline
210
0.0
220
0.0
230
1.0
 70
     8
 71
     3
 72
    23
 73
    19
 74
     0
 42
0.00000001
 43
0.00000001
 40
0.0
 40
0.0
 40
0.0
 40
0.0
 40
0.079471665649235
 40
0.1546887655364115
 40
0.2250165110733323
 40
0.291467506160477
 40
0.3543632234048237
 40
0.4139356982066929
 40
0.4719580584564964
 40
0.5285128903609665
 40
0.5839478224296039
 40
0.6383302738967893
 40
0.6929383562529546
 40
0.7489223126660097
 40
0.806593952990757
 40
0.8672808885137402
 40
0.9317597425837667
 40
1.0
 40
1.0
 40
1.0
 40
1.0
 10
89.15111805553386
 20
228.1880440426086
 30
0.0
 10
89.3088425834675
 20
228.1505836492004
 30
0.0
 10
89.61584775721781
 20
228.0776683281803
 30
0.0
 10
90.05334684780894
 20
227.9366160407736
 30
0.0
 10
90.45131283563664
 20
227.7671213437056
 30
0.0
 10
90.81815022251708
 20
227.5886826807444
 30
0.0
 10
91.13995438061558
 20
227.3751970266486
 30
0.0
 10
91.42932611212126
 20
227.1470586265696
 30
0.0
 10
91.68267795000946
 20
226.8965436884822
 30
0.0
 10
91.89266753891509
 20
226.6194168686448
 30
0.0
 10
92.06687326878169
 20
226.3274821995147
 30
0.0
 10
92.20208237173519
 20
226.0193397275261
 30
0.0
 10
92.28963470371207
 20
225.6933202963322
 30
0.0
 10
92.3369889192014
 20
225.3526043803492
 30
0.0
 10
92.3428154975218
 20
224.9962732717838
 30
0.0
 10
92.30822597704419
 20
224.6243147894654
 30
0.0
 10
92.22952568019369
 20
224.2368794703087
 30
0.0
 10
92.14780391868703
 20
223.978691452413
 30
0.0
 10
92.10578499632332
 20
223.8459387794507
 30
0.0
  0
SPLINE
  5
91
330
1F
100
AcDbEntity
  8
0
  6
Continuous
 62
     7
370
    25
100
AcDbSpline
210
0.0
220
0.0
230
1.0
 70
     8
 71
     3
 72
    15
 73
    11
 74
     0
 42
0.00000001
 43
0.00000001
 40
0.0
 40
0.0
 40
0.0
 40
0.0
 40
0.114037610332105
 40
0.232027505005693
 40
0.3538619436898111
 40
0.4822681244755387
 40
0.6125855574527649
 40
0.7410762692935061
 40
0.8701851844594972
 40
0.9665063628103542
 40
0.9665063628103542
 40
0.9665063628103542
 40
0.9665063628103542
 10
92.10578499632332
 20
223.8459387794507
 30
0.0
 10
92.03755826387977
 20
223.6665547508924
 30
0.0
 10
91.89874021554056
 20
223.3015696511254
 30
0.0
 10
91.60858382256241
 20
222.7800757567836
 30
0.0
 10
91.25585285146931
 20
222.2704009229815
 30
0.0
 10
90.84112587129678
 20
221.782142300263
 30
0.0
 10
90.38188340126902
 20
221.3195444715604
 30
0.0
 10
89.87816902559787
 20
220.9041114763655
 30
0.0
 10
89.38933033817224
 20
220.5629235125632
 30
0.0
 10
89.05860291372211
 20
220.3777753505411
 30
0.0
 10
88.91637857374369
 20
220.3001811479031
 30
0.0
  0
LINE
  5
92
330
1F
100
AcDbEntity
  8
0
  6
Continuous
 62
     7
370
    25
100
AcDbLine
 10
88.9163785737
 20
220.3001811479
 30
0.0
 11
93.345627493
 21
220.2426817705
 31
0.0
  0
SPLINE
  5
93
330
1F
100
AcDbEntity
  8
0
  6
Continuous
 62
     7
370
    25
100
AcDbSpline
210
0.0
220
0.0
230
1.0
 70
     8
 71
     3
 72
    15
 73
    11
 74
     0
 42
0.00000001
 43
0.00000001
 40
0.5015702349153168
 40
0.5015702349153168
 40
0.5015702349153168
 40
0.5015702349153168
 40
0.530360716787371
 40
0.5895508053017326
 40
0.6498781799964599
 40
0.7129474671318984
 40
0.7781679014646476
 40
0.8477194651434322
 40
0.9216031168883879
 40
1.0
 40
1.0
 40
1.0
 40
1.0
 10
93.34562749295469
 20
220.2426817704531
 30
0.0
 10
93.32690100362566
 20
220.2807951018804
 30
0.0
 10
93.27329694586246
 20
220.3990067697884
 30
0.0
 10
93.2027850274007
 20
220.6065231459514
 30
0.0
 10
93.14678874993477
 20
220.8706573108494
 30
0.0
 10
93.12965950518723
 20
221.1488560994599
 30
0.0
 10
93.13586205466159
 20
221.4407160390073
 30
0.0
 10
93.1734816020798
 20
221.7466014142977
 30
0.0
 10
93.24663889701348
 20
222.0658085490369
 30
0.0
 10
93.31312660009979
 20
222.2802543375698
 30
0.0
 10
93.34735572000753
 20
222.3906550623454
 30
0.0
  0
SPLINE
  5
94
330
1F
100
AcDbEntity
  8
0
  6
Continuous
 62
     7
370
    25
100
AcDbSpline
210
0.0
220
0.0
230
1.0
 70
     8
 71
     3
 72
    19
 73
    15
 74
     0
 42
0.00000001
 43
0.00000001
 40
0.0
 40
0.0
 40
0.0
 40
0.0
 40
0.1165869969984688
 40
0.2267736184001853
 40
0.3338988152399286
 40
0.4393642835494673
 40
0.4940242921838075
 40
0.5530866554759486
 40
0.6157018494348665
 40
0.6831699260716564
 40
0.7551060308055237
 40
0.8317178982995294
 40
0.9135671469406454
 40
1.0
 40
1.0
 40
1.0
 40
1.0
 10
93.34735572000753
 20
222.3906550623454
 30
0.0
 10
93.42758244610778
 20
222.6035331652735
 30
0.0
 10
93.58363162344779
 20
223.017602820741
 30
0.0
 10
93.90883505556793
 20
223.5845352013561
 30
0.0
 10
94.29383363694566
 20
224.0841035003573
 30
0.0
 10
94.66980763644197
 20
224.4479308045775
 30
0.0
 10
95.01121416185123
 20
224.70512724081
 30
0.0
 10
95.29808333325465
 20
224.8948400147252
 30
0.0
 10
95.62040272809875
 20
225.0742372128352
 30
0.0
 10
95.97309800566359
 20
225.2492314066307
 30
0.0
 10
96.35612018094245
 20
225.4243944061824
 30
0.0
 10
96.775785720706
 20
225.5844775609614
 30
0.0
 10
97.22527984447683
 20
225.7450467747169
 30
0.0
 10
97.53867311385143
 20
225.8417888705104
 30
0.0
 10
97.69963779237595
 20
225.8914774307665
 30
0.0
  0
LINE
  5
95
330
1F
100
AcDbEntity
  8
0
  6
Continuous
 62
     7
370
    25
100
AcDbLine
 10
97.6996377924
 20
225.8914774308
 30
0.0
 11
97.8658590095
 21
225.9457537466
 31
0.0
  0
SPLINE
  5
96
330
1F
100
AcDbEntity
  8
0
  6
Continuous
 62
     7
370
    25
100
AcDbSpline
210
0.0
220
0.0
230
1.0
 70
     8
 71
     3
 72
    15
 73
    11
 74
     0
 42
0.00000001
 43
0.00000001
 40
0.0
 40
0.0
 40
0.0
 40
0.0
 40
0.1553142171664957
 40
0.3006674763289477
 40
0.4383230870696433
 40
0.5665750722667448
 40
0.6877401666121645
 40
0.7999395484661166
 40
0.9032493360037345
 40
0.9999999999999999
 40
0.9999999999999999
 40
0.9999999999999999
 40
0.9999999999999999
 10
97.86585900948123
 20
225.945753746556
 30
0.0
 10
98.01082150967694
 20
225.9891361788195
 30
0.0
 10
98.29144945147996
 20
226.0731187443803
 30
0.0
 10
98.69685969408933
 20
226.2073041991637
 30
0.0
 10
99.07597431840591
 20
226.3370065877207
 30
0.0
 10
99.42758210368072
 20
226.4736213707309
 30
0.0
 10
99.75095533160732
 20
226.6134106184808
 30
0.0
 10
100.0508075051568
 20
226.7464836763128
 30
0.0
 10
100.321113021582
 20
226.8865669502788
 30
0.0
 10
100.4885326574539
 20
226.9863948475773
 30
0.0
 10
100.5694979897444
 20
227.0346723320822
 30
0.0
  0
LINE
  5
97
330
1F
100
AcDbEntity
  8
0
  6
Continuous
 62
     7
370
    25
100
AcDbLine
 10
100.5694979897
 20
227.0346723321
 30
0.0
 11
101.1529683845
 21
228.7477685492
 31
0.0
  0
SPLINE
  5
98
330
1F
100
AcDbEntity
  8
0
  6
Continuous
 62
     7
370
    25
100
AcDbSpline
210
0.0
220
0.0
230
1.0
 70
     8
 71
     3
 72
    15
 73
    11
 74
     0
 42
0.00000001
 43
0.00000001
 40
0.0
 40
0.0
 40
0.0
 40
0.0
 40
0.0897536640559583
 40
0.1716712106500951
 40
0.2458241014627424
 40
0.3150431841353882
 40
0.3764528273467486
 40
0.4330558590297882
 40
0.4844152120425103
 40
0.5215003730593539
 40
0.5215003730593539
 40
0.5215003730593539
 40
0.5215003730593539
 10
101.1529683844812
 20
228.7477685491875
 30
0.0
 10
101.182091276052
 20
228.8390926325915
 30
0.0
 10
101.2377944287442
 20
229.013767573435
 30
0.0
 10
101.3041373948098
 20
229.2680921339656
 30
0.0
 10
101.3439551790176
 20
229.5055594678347
 30
0.0
 10
101.3700477266899
 20
229.7228481336176
 30
0.0
 10
101.3716406851278
 20
229.9235173209906
 30
0.0
 10
101.346579323977
 20
230.102975356335
 30
0.0
 10
101.3110995416138
 20
230.2543994566777
 30
0.0
 10
101.2735116110924
 20
230.3414067178107
 30
0.0
 10
101.2555055115497
 20
230.3767775952432
 30
0.0
  0
LINE
  5
99
330
1F
100
AcDbEntity
  8
0
  6
Continuous
 62
     7
370
    25
100
AcDbLine
 10
101.2555055116
 20
230.3767775952
 30
0.0
 11
100.295801164
 21
230.3767775952
 31
0.0
  0
LINE
  5
9A
330
1F
100
AcDbEntity
  8
0
  6
Continuous
 62
     7
370
    25
100
AcDbLine
 10
100.295801164
 20
230.3767775952
 30
0.0
 11
99.3868680831
 21
230.8992074439
 31
0.0
  0
SPLINE
  5
9B
330
1F
100
AcDbEntity
  8
0
  6
Continuous
 62
     7
370
    25
100
AcDbSpline
210
0.0
220
0.0
230
1.0
 70
     8
 71
     3
 72
    14
 73
    10
 74
     0
 42
0.00000001
 43
0.00000001
 40
0.2349760805763295
 40
0.2349760805763295
 40
0.2349760805763295
 40
0.2349760805763295
 40
0.2906929340137923
 40
0.4282559746554604
 40
0.565093866627269
 40
0.6917365088013504
 40
0.8039924936345102
 40
0.9045053384568796
 40
0.9999999999999999
 40
0.9999999999999999
 40
0.9999999999999999
 40
0.9999999999999999
 10
99.38686808306558
 20
230.8992074439361
 30
0.0
 10
99.34555392884911
 20
230.8920175775673
 30
0.0
 10
99.20280891142407
 20
230.8636555637304
 30
0.0
 10
98.96349470408545
 20
230.7958104727956
 30
0.0
 10
98.6843095090219
 20
230.6799710674657
 30
0.0
 10
98.43750141079892
 20
230.5405608283955
 30
0.0
 10
98.23637801575636
 20
230.3817018680756
 30
0.0
 10
98.0859663399772
 20
230.2013407186557
 30
0.0
 10
98.0269232592437
 20
230.0656328300259
 30
0.0
 10
97.99815752921806
 20
229.9995160820822
 30
0.0
  0
SPLINE
  5
9C
330
1F
100
AcDbEntity
  8
0
  6
Continuous
 62
     7
370
    25
100
AcDbSpline
210
0.0
220
0.0
230
1.0
 70
     8
 71
     3
 72
    10
 73
     6
 74
     0
 42
0.00000001
 43
0.00000001
 40
0.0
 40
0.0
 40
0.0
 40
0.0
 40
0.1424812316110874
 40
0.2788256716234015
 40
0.3346625595393474
 40
0.3346625595393474
 40
0.3346625595393474
 40
0.3346625595393474
 10
98.6630423976391
 20
221.2101451939244
 30
0.0
 10
98.53695692651414
 20
221.0583176805561
 30
0.0
 10
98.29021659608006
 20
220.76120199797
 30
0.0
 10
97.95516781442471
 20
220.4399930383442
 30
0.0
 10
97.75220288600153
 20
220.267736994553
 30
0.0
 10
97.69227668411732
 20
220.218882858398
 30
0.0
  0
LINE
  5
9D
330
1F
100
AcDbEntity
  8
0
  6
Continuous
 62
     7
370
    25
100
AcDbLine
 10
97.6922766841
 20
220.2188828584
 30
0.0
 11
98.6271311996
 21
220.2188828584
 31
0.0
  0
SPLINE
  5
9E
330
1F
100
AcDbEntity
  8
0
  6
Continuous
 62
     7
370
    25
100
AcDbSpline
210
0.0
220
0.0
230
1.0
 70
     8
 71
     3
 72
    10
 73
     6
 74
     0
 42
0.00000001
 43
0.00000001
 40
0.6571929537692395
 40
0.6571929537692395
 40
0.6571929537692395
 40
0.6571929537692395
 40
0.7009759836718988
 40
0.8398850109038494
 40
1.0
 40
1.0
 40
1.0
 40
1.0
 10
98.62713119961225
 20
220.218882858398
 30
0.0
 10
98.61949762648231
 20
220.2607112595492
 30
0.0
 10
98.59429512287272
 20
220.4365502024997
 30
0.0
 10
98.59105309487137
 20
220.77054435771
 30
0.0
 10
98.63793765530288
 20
221.0568437269055
 30
0.0
 10
98.6630423976391
 20
221.2101451939244
 30
0.0
  0
SPLINE
  5
9F
330
1F
100
AcDbEntity
  8
0
  6
Continuous
 62
     7
370
    25
100
AcDbSpline
210
0.0
220
0.0
230
1.0
 70
     8
 71
     3
 72
     8
 73
     4
 74
     0
 42
0.00000001
 43
0.00000001
 40
0.0
 40
0.0
 40
0.0
 40
0.0
 40
0.1117388005345619
 40
0.1117388005345619
 40
0.1117388005345619
 40
0.1117388005345619
 10
113.3956698647444
 20
230.6033400952401
 30
0.0
 10
113.4745100769768
 20
230.7171634887223
 30
0.0
 10
113.5533502892093
 20
230.8309868822045
 30
0.0
 10
113.6352100136473
 20
230.9425176584739
 30
0.0
  0
LINE
  5
A0
330
1F
100
AcDbEntity
  8
0
  6
Continuous
 62
     7
370
    25
100
AcDbLine
 10
113.6352100136
 20
230.9425176585
 30
0.0
 11
113.1644119644
 21
230.8187760767
 31
0.0
  0
SPLINE
  5
A1
330
1F
100
AcDbEntity
  8
0
  6
Continuous
 62
     7
370
    25
100
AcDbSpline
210
0.0
220
0.0
230
1.0
 70
     8
 71
     3
 72
     9
 73
     5
 74
     0
 42
0.00000001
 43
0.00000001
 40
0.8593790275091373
 40
0.8593790275091373
 40
0.8593790275091373
 40
0.8593790275091373
 40
0.8793936493261357
 40
1.0
 40
1.0
 40
1.0
 40
1.0
 10
113.164411964422
 20
230.8187760767474
 30
0.0
 10
113.1760325753201
 20
230.8092933198633
 30
0.0
 10
113.2568636957243
 20
230.7417089926084
 30
0.0
 10
113.3315842809941
 20
230.6672237945262
 30
0.0
 10
113.3956698647444
 20
230.6033400952401
 30
0.0
  0
LINE
  5
A2
330
1F
100
AcDbEntity
  8
0
  6
Continuous
 62
     7
370
    25
100
AcDbLine
 10
103.8131767586
 20
215.6376494578
 30
0.0
 11
106.1374995212
 21
215.2493098335
 31
0.0
  0
LINE
  5
A3
330
1F
100
AcDbEntity
  8
0
  6
Continuous
 62
     7
370
    25
100
AcDbLine
 10
106.1374995212
 20
215.2493098335
 30
0.0
 11
110.0548876868
 21
216.3850165201
 31
0.0
  0
LINE
  5
A4
330
1F
100
AcDbEntity
  8
0
  6
Continuous
 62
     7
370
    25
100
AcDbLine
 10
110.0548876868
 20
216.3850165201
 30
0.0
 11
110.9113721956
 21
217.4650341905
 31
0.0
  0
SPLINE
  5
A5
330
1F
100
AcDbEntity
  8
0
  6
Continuous
 62
     7
370
    25
100
AcDbSpline
210
0.0
220
0.0
230
1.0
 70
     8
 71
     3
 72
    21
 73
    17
 74
     0
 42
0.00000001
 43
0.00000001
 40
0.1132787047322179
 40
0.1132787047322179
 40
0.1132787047322179
 40
0.1132787047322179
 40
0.1310137803511381
 40
0.167284841355254
 40
0.2005599844030342
 40
0.2334108626302853
 40
0.265918342456671
 40
0.3007854367401261
 40
0.3423613750953725
 40
0.3961412760807218
 40
0.4622318792951634
 40
0.5424996283109484
 40
0.6358577351170663
 40
0.7436745833237283
 40
0.8648288114291153
 40
0.9999999999999999
 40
0.9999999999999999
 40
0.9999999999999999
 40
0.9999999999999999
 10
110.9113721955673
 20
217.4650341905263
 30
0.0
 10
110.9127577556123
 20
217.4978090368913
 30
0.0
 10
110.9140558836867
 20
217.5977430094298
 30
0.0
 10
110.8999396774788
 20
217.7594230853843
 30
0.0
 10
110.8439700437707
 20
217.941668426783
 30
0.0
 10
110.7556586622075
 20
218.1029227409239
 30
0.0
 10
110.6316161993068
 20
218.2421945137213
 30
0.0
 10
110.4720009588539
 20
218.3672567998695
 30
0.0
 10
110.2524662819329
 20
218.4700495236777
 30
0.0
 10
109.9655920551741
 20
218.5547922147465
 30
0.0
 10
109.6014379765213
 20
218.6224415926754
 30
0.0
 10
109.1622564770806
 20
218.682659963375
 30
0.0
 10
108.6437768438502
 20
218.7286966458457
 30
0.0
 10
108.0486739029656
 20
218.7611839351329
 30
0.0
 10
107.3756595050308
 20
218.7813490482157
 30
0.0
 10
106.9017500463849
 20
218.7835249090288
 30
0.0
 10
106.6518376279023
 20
218.7846723320823
 30
0.0
  0
SPLINE
  5
A6
330
1F
100
AcDbEntity
  8
0
  6
Continuous
 62
     7
370
    25
100
AcDbSpline
210
0.0
220
0.0
230
1.0
 70
     8
 71
     3
 72
    11
 73
     7
 74
     0
 42
0.00000001
 43
0.00000001
 40
0.0
 40
0.0
 40
0.0
 40
0.0
 40
0.2226789212682707
 40
0.5246202256075033
 40
0.8119413510162857
 40
1.0
 40
1.0
 40
1.0
 40
1.0
 10
106.6518376279023
 20
218.7846723320823
 30
0.0
 10
106.600953735853
 20
218.7857654119825
 30
0.0
 10
106.4810738712721
 20
218.7883406526949
 30
0.0
 10
106.295534891669
 20
218.7932972560481
 30
0.0
 10
106.1182238201862
 20
218.8053910362986
 30
0.0
 10
106.0095787625357
 20
218.8075601328846
 30
0.0
 10
105.9665991410602
 20
218.8084182202402
 30
0.0
  0
SPLINE
  5
A7
330
1F
100
AcDbEntity
  8
0
  6
Continuous
 62
     7
370
    25
100
AcDbSpline
210
0.0
220
0.0
230
1.0
 70
     8
 71
     3
 72
    15
 73
    11
 74
     0
 42
0.00000001
 43
0.00000001
 40
0.0
 40
0.0
 40
0.0
 40
0.0
 40
0.148153457079261
 40
0.2873969204074714
 40
0.419427956874179
 40
0.5458890120472002
 40
0.6652142709718846
 40
0.7792800098144655
 40
0.8902296585577432
 40
0.9999999999999999
 40
0.9999999999999999
 40
0.9999999999999999
 40
0.9999999999999999
 10
105.9665991410602
 20
218.8084182202402
 30
0.0
 10
105.8027595224773
 20
218.7593550575222
 30
0.0
 10
105.4849336495634
 20
218.6641794055424
 30
0.0
 10
105.0377488432824
 20
218.4766501821493
 30
0.0
 10
104.6340919153094
 20
218.2563795515758
 30
0.0
 10
104.2786514145358
 20
218.0023574013055
 30
0.0
 10
103.9694825140351
 20
217.7234783122303
 30
0.0
 10
103.7130416487509
 20
217.4188760563971
 30
0.0
 10
103.5031068505685
 20
217.0919442727302
 30
0.0
 10
103.4106898574046
 20
216.8540520120054
 30
0.0
 10
103.3647282529023
 20
216.7357414110296
 30
0.0
  0
SPLINE
  5
A8
330
1F
100
AcDbEntity
  8
0
  6
Continuous
 62
     7
370
    25
100
AcDbSpline
210
0.0
220
0.0
230
1.0
 70
     8
 71
     3
 72
     9
 73
     5
 74
     0
 42
0.00000001
 43
0.00000001
 40
0.0
 40
0.0
 40
0.0
 40
0.0
 40
0.058637574490982
 40
0.0843399536168536
 40
0.0843399536168536
 40
0.0843399536168536
 40
0.0843399536168536
 10
103.3647282529023
 20
216.7357414110296
 30
0.0
 10
103.3394794352927
 20
216.6571927770023
 30
0.0
 10
103.303163402023
 20
216.5442142268483
 30
0.0
 10
103.283192935194
 20
216.4274850174185
 30
0.0
 10
103.2783470915027
 20
216.3916978453036
 30
0.0
  0
LINE
  5
A9
330
1F
100
AcDbEntity
  8
0
  6
Continuous
 62
     7
370
    25
100
AcDbLine
 10
103.2783470915
 20
216.3916978453
 30
0.0
 11
103.8131767586
 21
215.6376494578
 31
0.0
  0
SPLINE
  5
AA
330
1F
100
AcDbEntity
  8
0
  6
Continuous
 62
     7
370
    25
100
AcDbSpline
210
0.0
220
0.0
230
1.0
 70
     8
 71
     3
 72
     8
 73
     4
 74
     0
 42
0.00000001
 43
0.00000001
 40
0.991417690720838
 40
0.991417690720838
 40
0.991417690720838
 40
0.991417690720838
 40
1.0
 40
1.0
 40
1.0
 40
1.0
 10
117.4073115888217
 20
231.222138704542
 30
0.0
 10
117.4055231937482
 20
231.2160160045759
 30
0.0
 10
117.4037318088515
 20
231.2098939216185
 30
0.0
 10
117.4019404239549
 20
231.2037718386612
 30
0.0
  0
SPLINE
  5
AB
330
1F
100
AcDbEntity
  8
0
  6
Continuous
 62
     7
370
    25
100
AcDbSpline
210
0.0
220
0.0
230
1.0
 70
     8
 71
     3
 72
     9
 73
     5
 74
     0
 42
0.00000001
 43
0.00000001
 40
0.0
 40
0.0
 40
0.0
 40
0.0
 40
0.1265338286056994
 40
0.1300189075711004
 40
0.1300189075711004
 40
0.1300189075711004
 40
0.1300189075711004
 10
117.4019404239549
 20
231.2037718386612
 30
0.0
 10
117.3684639237557
 20
231.1176699328238
 30
0.0
 10
117.3340653914964
 20
231.0291965509612
 30
0.0
 10
117.2910901006957
 20
230.9448256372265
 30
0.0
 10
117.2899320703996
 20
230.9425670786216
 30
0.0
  0
LINE
  5
AC
330
1F
100
AcDbEntity
  8
0
  6
Continuous
 62
     7
370
    25
100
AcDbLine
 10
117.2899320704
 20
230.9425670786
 30
0.0
 11
117.3273104897
 21
230.9425670689
 31
0.0
  0
SPLINE
  5
AD
330
1F
100
AcDbEntity
  8
0
  6
Continuous
 62
     7
370
    25
100
AcDbSpline
210
0.0
220
0.0
230
1.0
 70
     8
 71
     3
 72
     9
 73
     5
 74
     0
 42
0.00000001
 43
0.00000001
 40
0.0
 40
0.0
 40
0.0
 40
0.0
 40
0.2315977217788592
 40
0.2492341442681018
 40
0.2492341442681018
 40
0.2492341442681018
 40
0.2492341442681018
 10
117.3273104897444
 20
230.9425670689243
 30
0.0
 10
117.5828973384628
 20
230.9444084353931
 30
0.0
 10
117.8579474082012
 20
230.9463900239535
 30
0.0
 10
118.1328728828933
 20
230.9537599213281
 30
0.0
 10
118.1523266452559
 20
230.9543075461072
 30
0.0
  0
LINE
  5
AE
330
1F
100
AcDbEntity
  8
0
  6
Continuous
 62
     7
370
    25
100
AcDbLine
 10
118.1523266453
 20
230.9543075461
 30
0.0
 11
117.4073115888
 21
231.2221387045
 31
0.0
  0
SPLINE
  5
AF
330
1F
100
AcDbEntity
  8
0
  6
Continuous
 62
     7
370
    25
100
AcDbSpline
210
0.0
220
0.0
230
1.0
 70
     8
 71
     3
 72
    23
 73
    19
 74
     0
 42
0.00000001
 43
0.00000001
 40
0.0
 40
0.0
 40
0.0
 40
0.0
 40
0.1262481576075734
 40
0.2411816022402734
 40
0.3438637945524705
 40
0.4356065238819091
 40
0.5156682925454035
 40
0.584521698788223
 40
0.6422744935125917
 40
0.6895166229291826
 40
0.7293279176487526
 40
0.7666065592682676
 40
0.8010943207346436
 40
0.8360667115047581
 40
0.8710070027813992
 40
0.9101073243302297
 40
0.9527163233794604
 40
1.0
 40
1.0
 40
1.0
 40
1.0
 10
108.2021048976391
 20
227.1364404241875
 30
0.0
 10
108.140858364389
 20
226.9559383317461
 30
0.0
 10
108.0238543834927
 20
226.6111112492151
 30
0.0
 10
107.8775858727639
 20
226.1129353353753
 30
0.0
 10
107.7494611135317
 20
225.6638698404194
 30
0.0
 10
107.6489913546585
 20
225.2615972655703
 30
0.0
 10
107.5827596693115
 20
224.9043613871951
 30
0.0
 10
107.5337783220476
 20
224.5958619835801
 30
0.0
 10
107.520768951744
 20
224.3334622568057
 30
0.0
 10
107.5266553660505
 20
224.114288510122
 30
0.0
 10
107.5650281612475
 20
223.9295461517784
 30
0.0
 10
107.6284064293316
 20
223.7722773956341
 30
0.0
 10
107.7199271793414
 20
223.6381737596424
 30
0.0
 10
107.8355572659802
 20
223.5290784498922
 30
0.0
 10
107.9783502330004
 20
223.4451052466594
 30
0.0
 10
108.1447413444883
 20
223.3844374757159
 30
0.0
 10
108.3377535763376
 20
223.3525950778709
 30
0.0
 10
108.4733829143187
 20
223.3468858961762
 30
0.0
 10
108.5447241410602
 20
223.343882858398
 30
0.0
  0
SPLINE
  5
B0
330
1F
100
AcDbEntity
  8
0
  6
Continuous
 62
     7
370
    25
100
AcDbSpline
210
0.0
220
0.0
230
1.0
 70
     8
 71
     3
 72
    23
 73
    19
 74
     0
 42
0.00000001
 43
0.00000001
 40
0.0
 40
0.0
 40
0.0
 40
0.0
 40
0.0466619441433679
 40
0.0918043736988081
 40
0.1365218127616461
 40
0.1815642589616521
 40
0.2275448866849272
 40
0.2744505867963454
 40
0.3234415006332625
 40
0.374489606326603
 40
0.429551654087913
 40
0.4915635846450283
 40
0.5594043982117733
 40
0.6336653088818012
 40
0.714797300943207
 40
0.8029779383757925
 40
0.898195135917333
 40
1.0
 40
1.0
 40
1.0
 40
1.0
 10
108.5447241410602
 20
223.343882858398
 30
0.0
 10
108.6173024363766
 20
223.3450997488225
 30
0.0
 10
108.7600955640094
 20
223.3474939024595
 30
0.0
 10
108.9688182238185
 20
223.3886203272243
 30
0.0
 10
109.1708406952739
 20
223.4448816055584
 30
0.0
 10
109.3652699581075
 20
223.5276754561548
 30
0.0
 10
109.5525303095541
 20
223.6325620851956
 30
0.0
 10
109.7299522181232
 20
223.7638847858108
 30
0.0
 10
109.9001932839429
 20
223.9163558411054
 30
0.0
 10
110.0607322144161
 20
224.0963944356802
 30
0.0
 10
110.2190487977865
 20
224.3041393552774
 30
0.0
 10
110.3776433090012
 20
224.5437675547623
 30
0.0
 10
110.5328617896599
 20
224.8203219269467
 30
0.0
 10
110.6876637446338
 20
225.1304489631483
 30
0.0
 10
110.8493987983337
 20
225.4724629537068
 30
0.0
 10
111.0017262511501
 20
225.8540128247291
 30
0.0
 10
111.1636767164632
 20
226.2662023069372
 30
0.0
 10
111.2620071382389
 20
226.5559198638919
 30
0.0
 10
111.3128162463233
 20
226.7056221676086
 30
0.0
  0
SPLINE
  5
B1
330
1F
100
AcDbEntity
  8
0
  6
Continuous
 62
     7
370
    25
100
AcDbSpline
210
0.0
220
0.0
230
1.0
 70
     8
 71
     3
 72
    18
 73
    14
 74
     0
 42
0.00000001
 43
0.00000001
 40
0.0
 40
0.0
 40
0.0
 40
0.0
 40
0.1336000324531833
 40
0.2547395670150526
 40
0.3625676877902972
 40
0.4580929529475038
 40
0.5404292444357656
 40
0.6101108948071915
 40
0.6675485781837764
 40
0.7132240543364614
 40
0.7513165901890375
 40
0.7862489202184991
 40
0.7913281854701488
 40
0.7913281854701488
 40
0.7913281854701488
 40
0.7913281854701488
 10
111.3128162463233
 20
226.7056221676086
 30
0.0
 10
111.3843041752202
 20
226.9155037125995
 30
0.0
 10
111.5206125556869
 20
227.3156917433486
 30
0.0
 10
111.6931801183004
 20
227.8920920908999
 30
0.0
 10
111.8477227551765
 20
228.4080430840612
 30
0.0
 10
111.9598647035166
 20
228.8687432480409
 30
0.0
 10
112.0526434871865
 20
229.2690493241346
 30
0.0
 10
112.1074028942578
 20
229.6125464232234
 30
0.0
 10
112.1344981236077
 20
229.8982966241699
 30
0.0
 10
112.1302070763284
 20
230.133369740588
 30
0.0
 10
112.0960590507686
 20
230.3280705002694
 30
0.0
 10
112.0519559199394
 20
230.4510899878582
 30
0.0
 10
112.020817028982
 20
230.5097511976484
 30
0.0
 10
112.016733948571
 20
230.5171276454765
 30
0.0
  0
LINE
  5
B2
330
1F
100
AcDbEntity
  8
0
  6
Continuous
 62
     7
370
    25
100
AcDbLine
 10
112.0167339486
 20
230.5171276455
 30
0.0
 11
111.4827458668
 21
230.3767775952
 31
0.0
  0
LINE
  5
B3
330
1F
100
AcDbEntity
  8
0
  6
Continuous
 62
     7
370
    25
100
AcDbLine
 10
111.4827458668
 20
230.3767775952
 30
0.0
 11
109.7767368239
 21
230.3767775858
 31
0.0
  0
SPLINE
  5
B4
330
1F
100
AcDbEntity
  8
0
  6
Continuous
 62
     7
370
    25
100
AcDbSpline
210
0.0
220
0.0
230
1.0
 70
     8
 71
     3
 72
    17
 73
    13
 74
     0
 42
0.00000001
 43
0.00000001
 40
0.2930114283376615
 40
0.2930114283376615
 40
0.2930114283376615
 40
0.2930114283376615
 40
0.2988045299487238
 40
0.3456444292310508
 40
0.3972243790577866
 40
0.4577835380000797
 40
0.5264397988271358
 40
0.6033385453950769
 40
0.689209006868419
 40
0.7841244617647151
 40
0.8872864805397994
 40
1.0
 40
1.0
 40
1.0
 40
1.0
 10
109.7767368239018
 20
230.3767775858133
 30
0.0
 10
109.7696996305876
 20
230.3697993772059
 30
0.0
 10
109.7061823299645
 20
230.3059785202261
 30
0.0
 10
109.5880988193833
 20
230.1721011333178
 30
0.0
 10
109.428342247412
 20
229.9516343285482
 30
0.0
 10
109.2688990150619
 20
229.6865465540668
 30
0.0
 10
109.0973998775828
 20
229.3784191360072
 30
0.0
 10
108.9304438581248
 20
229.0193496449907
 30
0.0
 10
108.7538436822703
 20
228.6156325515692
 30
0.0
 10
108.5716840904277
 20
228.1654475373556
 30
0.0
 10
108.3837318285663
 20
227.6682297033803
 30
0.0
 10
108.2644070654506
 20
227.3188562407378
 30
0.0
 10
108.2021048976391
 20
227.1364404241875
 30
0.0
  0
LINE
  5
B5
330
1F
100
AcDbEntity
  8
0
  6
Continuous
 62
     7
370
    25
100
AcDbLine
 10
121.3166197003
 20
224.2021271018
 30
0.0
 11
123.009362299
 21
229.1819790755
 31
0.0
  0
SPLINE
  5
B6
330
1F
100
AcDbEntity
  8
0
  6
Continuous
 62
     7
370
    25
100
AcDbSpline
210
0.0
220
0.0
230
1.0
 70
     8
 71
     3
 72
    10
 73
     6
 74
     0
 42
0.00000001
 43
0.00000001
 40
0.0
 40
0.0
 40
0.0
 40
0.0
 40
0.2035755849075751
 40
0.3617723548122363
 40
0.4755300640295807
 40
0.4755300640295807
 40
0.4755300640295807
 40
0.4755300640295807
 10
123.0093622989549
 20
229.1819790755033
 30
0.0
 10
123.0526614446864
 20
229.3135107021018
 30
0.0
 10
123.1296079700751
 20
229.5472543816715
 30
0.0
 10
123.1984722602847
 20
229.8640480459419
 30
0.0
 10
123.2213700873707
 20
230.0472984990233
 30
0.0
 10
123.2164634867949
 20
230.1257496347138
 30
0.0
  0
LINE
  5
B7
330
1F
100
AcDbEntity
  8
0
  6
Continuous
 62
     7
370
    25
100
AcDbLine
 10
123.2164634868
 20
230.1257496347
 30
0.0
 11
120.4570925385
 21
230.1257496347
 31
0.0
  0
LINE
  5
B8
330
1F
100
AcDbEntity
  8
0
  6
Continuous
 62
     7
370
    25
100
AcDbLine
 10
120.4570925385
 20
230.1257496347
 30
0.0
 11
120.3094990895
 21
230.1788091321
 31
0.0
  0
LINE
  5
B9
330
1F
100
AcDbEntity
  8
0
  6
Continuous
 62
     7
370
    25
100
AcDbLine
 10
120.3094990895
 20
230.1788091321
 30
0.0
 11
117.5376312134
 21
222.0242899308
 31
0.0
  0
SPLINE
  5
BA
330
1F
100
AcDbEntity
  8
0
  6
Continuous
 62
     7
370
    25
100
AcDbSpline
210
0.0
220
0.0
230
1.0
 70
     8
 71
     3
 72
    13
 73
     9
 74
     0
 42
0.00000001
 43
0.00000001
 40
0.0
 40
0.0
 40
0.0
 40
0.0
 40
0.2124063897121469
 40
0.3887264047682045
 40
0.5301391779980918
 40
0.639785546381196
 40
0.7270465100251842
 40
0.76973032889965
 40
0.76973032889965
 40
0.76973032889965
 40
0.76973032889965
 10
117.5376312134286
 20
222.0242899307665
 30
0.0
 10
117.4856309933091
 20
221.8632732269834
 30
0.0
 10
117.3904650303567
 20
221.5685954423177
 30
0.0
 10
117.2914691342167
 20
221.157379835976
 30
0.0
 10
117.2485144992099
 20
220.8190043046198
 30
0.0
 10
117.2601754040365
 20
220.547074471551
 30
0.0
 10
117.3291770110133
 20
220.3647390658742
 30
0.0
 10
117.394173023539
 20
220.2825175356037
 30
0.0
 10
117.418038234094
 20
220.2579760140759
 30
0.0
  0
LINE
  5
BB
330
1F
100
AcDbEntity
  8
0
  6
Continuous
 62
     7
370
    25
100
AcDbLine
 10
117.4180382341
 20
220.2579760141
 30
0.0
 11
118.9001499243
 21
220.3690476161
 31
0.0
  0
SPLINE
  5
BC
330
1F
100
AcDbEntity
  8
0
  6
Continuous
 62
     7
370
    25
100
AcDbSpline
210
0.0
220
0.0
230
1.0
 70
     8
 71
     3
 72
    19
 73
    15
 74
     0
 42
0.00000001
 43
0.00000001
 40
0.1816182252000112
 40
0.1816182252000112
 40
0.1816182252000112
 40
0.1816182252000112
 40
0.2238309088562113
 40
0.2751521365338025
 40
0.3300634993991758
 40
0.3888886056316295
 40
0.4519654752922607
 40
0.517897575934174
 40
0.5875664361082631
 40
0.6618741355869151
 40
0.7399375671055771
 40
0.8221257766914586
 40
0.9086295915070922
 40
0.9999999999999999
 40
0.9999999999999999
 40
0.9999999999999999
 40
0.9999999999999999
 10
118.9001499243256
 20
220.3690476161485
 30
0.0
 10
118.9683638784899
 20
220.4096169079082
 30
0.0
 10
119.1145363564015
 20
220.5077969341805
 30
0.0
 10
119.329174372151
 20
220.6864066189698
 30
0.0
 10
119.5543960860362
 20
220.9000261485481
 30
0.0
 10
119.7743103239913
 20
221.1495048610317
 30
0.0
 10
119.9902664299833
 20
221.429000413163
 30
0.0
 10
120.1959746832329
 20
221.7407276972703
 30
0.0
 10
120.4020518307362
 20
222.0771630978336
 30
0.0
 10
120.5964904336247
 20
222.4465680152302
 30
0.0
 10
120.7855316884981
 20
222.8446944032168
 30
0.0
 10
120.9742388420805
 20
223.2683326531717
 30
0.0
 10
121.1489460453424
 20
223.7248503741591
 30
0.0
 10
121.2597182488219
 20
224.0401592687794
 30
0.0
 10
121.3166197002707
 20
224.2021271018191
 30
0.0
  0
SPLINE
  5
BD
330
1F
100
AcDbEntity
  8
0
  6
Continuous
 62
     7
370
    25
100
AcDbSpline
210
0.0
220
0.0
230
1.0
 70
     8
 71
     3
 72
    10
 73
     6
 74
     0
 42
0.00000001
 43
0.00000001
 40
0.0
 40
0.0
 40
0.0
 40
0.0
 40
0.2027483190930986
 40
0.3595638842268283
 40
0.3802362715587337
 40
0.3802362715587337
 40
0.3802362715587337
 40
0.3802362715587337
 10
122.4632068713233
 20
221.1830070360296
 30
0.0
 10
122.4194214508298
 20
221.0527583720752
 30
0.0
 10
122.3417702232607
 20
220.8217689575325
 30
0.0
 10
122.2903682076465
 20
220.5683286602406
 30
0.0
 10
122.2723547905673
 20
220.4498095504356
 30
0.0
 10
122.2704064864649
 20
220.4359881215559
 30
0.0
  0
LINE
  5
BE
330
1F
100
AcDbEntity
  8
0
  6
Continuous
 62
     7
370
    25
100
AcDbLine
 10
122.2704064865
 20
220.4359881216
 30
0.0
 11
124.9360862961
 21
220.4359881216
 31
0.0
  0
LINE
  5
BF
330
1F
100
AcDbEntity
  8
0
  6
Continuous
 62
     7
370
    25
100
AcDbLine
 10
124.9360862961
 20
220.4359881216
 30
0.0
 11
125.2545340293
 21
220.4187456047
 31
0.0
  0
LINE
  5
C0
330
1F
100
AcDbEntity
  8
0
  6
Continuous
 62
     7
370
    25
100
AcDbLine
 10
125.2545340293
 20
220.4187456047
 30
0.0
 11
126.5882068713
 21
224.212303911
 31
0.0
  0
LINE
  5
C1
330
1F
100
AcDbEntity
  8
0
  6
Continuous
 62
     7
370
    25
100
AcDbLine
 10
126.5882068713
 20
224.212303911
 30
0.0
 11
127.134362299
 21
224.212303911
 31
0.0
  0
SPLINE
  5
C2
330
1F
100
AcDbEntity
  8
0
  6
Continuous
 62
     7
370
    25
100
AcDbSpline
210
0.0
220
0.0
230
1.0
 70
     8
 71
     3
 72
    18
 73
    14
 74
     0
 42
0.00000001
 43
0.00000001
 40
0.0
 40
0.0
 40
0.0
 40
0.0
 40
0.0879121783606659
 40
0.1706568462912997
 40
0.2484106442671651
 40
0.3221468493164369
 40
0.3923211121083159
 40
0.4588727829570483
 40
0.5222898729705353
 40
0.5839227523142952
 40
0.642395854382
 40
0.6964484511259756
 40
0.713920823198751
 40
0.713920823198751
 40
0.713920823198751
 40
0.713920823198751
 10
127.1343622989549
 20
224.2123039110296
 30
0.0
 10
127.0942218482968
 20
224.0498564348142
 30
0.0
 10
127.0163004175489
 20
223.7345102052489
 30
0.0
 10
126.9307647891131
 20
223.2692101568264
 30
0.0
 10
126.878509833454
 20
222.826149596555
 30
0.0
 10
126.8608346438514
 20
222.4042602926531
 30
0.0
 10
126.8764870013008
 20
222.0034616288223
 30
0.0
 10
126.9279250128357
 20
221.6255869839974
 30
0.0
 10
127.008022139545
 20
221.2691293792639
 30
0.0
 10
127.1239156159487
 20
220.9391354857226
 30
0.0
 10
127.2617536448749
 20
220.6365387256576
 30
0.0
 10
127.3996937316806
 20
220.4303552034328
 30
0.0
 10
127.4835555188955
 20
220.3227082553544
 30
0.0
 10
127.5046248466875
 20
220.2969132704896
 30
0.0
  0
LINE
  5
C3
330
1F
100
AcDbEntity
  8
0
  6
Continuous
 62
     7
370
    25
100
AcDbLine
 10
127.5046248467
 20
220.2969132705
 30
0.0
 11
128.9273058873
 21
220.219881477
 31
0.0
  0
LINE
  5
C4
330
1F
100
AcDbEntity
  8
0
  6
Continuous
 62
     7
370
    25
100
AcDbLine
 10
128.9273058873
 20
220.219881477
 30
0.0
 11
130.5769073723
 21
220.2807643664
 31
0.0
  0
SPLINE
  5
C5
330
1F
100
AcDbEntity
  8
0
  6
Continuous
 62
     7
370
    25
100
AcDbSpline
210
0.0
220
0.0
230
1.0
 70
     8
 71
     3
 72
    11
 73
     7
 74
     0
 42
0.00000001
 43
0.00000001
 40
0.5209689127426477
 40
0.5209689127426477
 40
0.5209689127426477
 40
0.5209689127426477
 40
0.6187023405797775
 40
0.7467595023338189
 40
0.8728530807997474
 40
1.0
 40
1.0
 40
1.0
 40
1.0
 10
130.5769073722871
 20
220.2807643663612
 30
0.0
 10
130.6635002554775
 20
220.3510380831503
 30
0.0
 10
130.8554311603697
 20
220.5231846960422
 30
0.0
 10
131.1170904411514
 20
220.8287961572476
 30
0.0
 10
131.3506976132095
 20
221.1983292318341
 30
0.0
 10
131.454753592414
 20
221.4681679395003
 30
0.0
 10
131.5069979897443
 20
221.603648483398
 30
0.0
  0
SPLINE
  5
C6
330
1F
100
AcDbEntity
  8
0
  6
Continuous
 62
     7
370
    25
100
AcDbSpline
210
0.0
220
0.0
230
1.0
 70
     8
 71
     3
 72
    19
 73
    15
 74
     0
 42
0.00000001
 43
0.00000001
 40
0.0
 40
0.0
 40
0.0
 40
0.0
 40
0.1152587498342434
 40
0.2189819534950817
 40
0.3167519054877292
 40
0.4111904566985723
 40
0.4611630679529592
 40
0.5176137269942089
 40
0.5799148342592446
 40
0.6500562580834204
 40
0.7260824858962583
 40
0.809677129432259
 40
0.9016423782665716
 40
1.0
 40
1.0
 40
1.0
 40
1.0
 10
131.5069979897444
 20
221.603648483398
 30
0.0
 10
131.5428447287833
 20
221.7248320778428
 30
0.0
 10
131.6109505251108
 20
221.955070738953
 30
0.0
 10
131.6439015728237
 20
222.3027997836727
 30
0.0
 10
131.6081282504225
 20
222.6271478901938
 30
0.0
 10
131.5178423097828
 20
222.8795077758863
 30
0.0
 10
131.4064407644651
 20
223.0693188069737
 30
0.0
 10
131.3027144788513
 20
223.2224855382642
 30
0.0
 10
131.1665322185133
 20
223.3784898283931
 30
0.0
 10
131.008971380397
 20
223.5435934255704
 30
0.0
 10
130.8237634017637
 20
223.714021179191
 30
0.0
 10
130.611791398072
 20
223.8898570968881
 30
0.0
 10
130.3767330529755
 20
224.0761184270458
 30
0.0
 10
130.207182361861
 20
224.1972141864426
 30
0.0
 10
130.119559667376
 20
224.2597956873454
 30
0.0
  0
SPLINE
  5
C7
330
1F
100
AcDbEntity
  8
0
  6
Continuous
 62
     7
370
    25
100
AcDbSpline
210
0.0
220
0.0
230
1.0
 70
     8
 71
     3
 72
     9
 73
     5
 74
     0
 42
0.00000001
 43
0.00000001
 40
0.0
 40
0.0
 40
0.0
 40
0.0
 40
0.4228582862755939
 40
1.0
 40
1.0
 40
1.0
 40
1.0
 10
130.119559667376
 20
224.2597956873454
 30
0.0
 10
130.0498694366372
 20
224.3112785565742
 30
0.0
 10
129.8850619041833
 20
224.4330282559409
 30
0.0
 10
129.713263501263
 20
224.5447310996145
 30
0.0
 10
129.6141114765865
 20
224.6091994702402
 30
0.0
  0
SPLINE
  5
C8
330
1F
100
AcDbEntity
  8
0
  6
Continuous
 62
     7
370
    25
100
AcDbSpline
210
0.0
220
0.0
230
1.0
 70
     8
 71
     3
 72
    15
 73
    11
 74
     0
 42
0.00000001
 43
0.00000001
 40
0.0
 40
0.0
 40
0.0
 40
0.0
 40
0.1631749802970917
 40
0.3108673821059475
 40
0.4436961191478386
 40
0.5651583651938554
 40
0.6765414963001288
 40
0.7833382947278563
 40
0.8893777669195284
 40
1.0
 40
1.0
 40
1.0
 40
1.0
 10
129.6141114765865
 20
224.6091994702402
 30
0.0
 10
129.4290945229838
 20
224.745739802691
 30
0.0
 10
129.0766156324886
 20
225.0058650720405
 30
0.0
 10
128.6196089411551
 20
225.4342268438893
 30
0.0
 10
128.2525711147925
 20
225.8672418345068
 30
0.0
 10
127.9799202357655
 20
226.3064665554651
 30
0.0
 10
127.798600437505
 20
226.7525634423455
 30
0.0
 10
127.7205310246063
 20
227.2052220219241
 30
0.0
 10
127.7298368201542
 20
227.6652609588277
 30
0.0
 10
127.8139629719353
 20
227.9596923053463
 30
0.0
 10
127.8569157529023
 20
228.1100218386612
 30
0.0
  0
SPLINE
  5
C9
330
1F
100
AcDbEntity
  8
0
  6
Continuous
 62
     7
370
    25
100
AcDbSpline
210
0.0
220
0.0
230
1.0
 70
     8
 71
     3
 72
    15
 73
    11
 74
     0
 42
0.00000001
 43
0.00000001
 40
0.0
 40
0.0
 40
0.0
 40
0.0
 40
0.0615491757245357
 40
0.1233559883045337
 40
0.1857767909165584
 40
0.248698733887205
 40
0.3135404320913439
 40
0.3788990342091075
 40
0.446794156813888
 40
0.4827185104605189
 40
0.4827185104605189
 40
0.4827185104605189
 40
0.4827185104605189
 10
127.8569157529023
 20
228.1100218386612
 30
0.0
 10
127.895569755498
 20
228.2171832632333
 30
0.0
 10
127.973039561324
 20
228.4319546761825
 30
0.0
 10
128.1269728362777
 20
228.7396107721877
 30
0.0
 10
128.293200753346
 20
229.04344062283
 30
0.0
 10
128.4936641283939
 20
229.3330889062715
 30
0.0
 10
128.71605657886
 20
229.6127624420469
 30
0.0
 10
128.9631372325954
 20
229.8836342546534
 30
0.0
 10
129.1890436831362
 20
230.1003388398446
 30
0.0
 10
129.333386581702
 20
230.2270297484962
 30
0.0
 10
129.3840259960656
 20
230.270047169804
 30
0.0
  0
LINE
  5
CA
330
1F
100
AcDbEntity
  8
0
  6
Continuous
 62
     7
370
    25
100
AcDbLine
 10
129.3840259961
 20
230.2700471698
 30
0.0
 11
125.862386202
 21
230.1257496347
 31
0.0
  0
LINE
  5
CB
330
1F
100
AcDbEntity
  8
0
  6
Continuous
 62
     7
370
    25
100
AcDbLine
 10
125.862386202
 20
230.1257496347
 30
0.0
 11
125.5020917667
 21
230.1257496347
 31
0.0
  0
LINE
  5
CC
330
1F
100
AcDbEntity
  8
0
  6
Continuous
 62
     7
370
    25
100
AcDbLine
 10
125.5020917667
 20
230.1257496347
 30
0.0
 11
122.4632068713
 21
221.183007036
 31
0.0
  0
LINE
  5
CD
330
1F
100
AcDbEntity
  8
0
  6
Continuous
 62
     7
370
    25
100
AcDbLine
 10
119.7933872933
 20
220.4359881216
 30
0.0
 11
120.170428197
 21
220.4359881216
 31
0.0
  0
LINE
  5
CE
330
1F
100
AcDbEntity
  8
0
  6
Continuous
 62
     7
370
    25
100
AcDbLine
 10
120.170428197
 20
220.4359881216
 30
0.0
 11
120.5024749634
 21
221.4136813781
 31
0.0
  0
SPLINE
  5
CF
330
1F
100
AcDbEntity
  8
0
  6
Continuous
 62
     7
370
    25
100
AcDbSpline
210
0.0
220
0.0
230
1.0
 70
     8
 71
     3
 72
    10
 73
     6
 74
     0
 42
0.00000001
 43
0.00000001
 40
0.0
 40
0.0
 40
0.0
 40
0.0
 40
0.1456885032552335
 40
0.2843817518846651
 40
0.3047963499424313
 40
0.3047963499424313
 40
0.3047963499424313
 40
0.3047963499424313
 10
120.5024749634286
 20
221.4136813781349
 30
0.0
 10
120.3746432491109
 20
221.245768850356
 30
0.0
 10
120.1251176787891
 20
220.9180061391867
 30
0.0
 10
119.8168087569948
 20
220.6012886819079
 30
0.0
 10
119.6487020253309
 20
220.4436113721865
 30
0.0
 10
119.6270073044009
 20
220.4235193636065
 30
0.0
  0
LINE
  5
D0
330
1F
100
AcDbEntity
  8
0
  6
Continuous
 62
     7
370
    25
100
AcDbLine
 10
119.6270073044
 20
220.4235193636
 30
0.0
 11
119.7933872933
 21
220.4359881216
 31
0.0
  0
LINE
  5
D1
330
1F
100
AcDbEntity
  8
0
  6
Continuous
 62
     7
370
    25
100
AcDbLine
 10
115.712590095
 20
223.0385785821
 30
0.0
 11
117.7988359832
 21
229.1819790755
 31
0.0
  0
SPLINE
  5
D2
330
1F
100
AcDbEntity
  8
0
  6
Continuous
 62
     7
370
    25
100
AcDbSpline
210
0.0
220
0.0
230
1.0
 70
     8
 71
     3
 72
    15
 73
    11
 74
     0
 42
0.00000001
 43
0.00000001
 40
0.0
 40
0.0
 40
0.0
 40
0.0
 40
0.2040221393785165
 40
0.3625659227765776
 40
0.477674613230481
 40
0.5552955178128853
 40
0.6260454970835874
 40
0.7179694154698643
 40
0.8431914906855276
 40
1.0
 40
1.0
 40
1.0
 40
1.0
 10
117.7988359831654
 20
229.1819790755033
 30
0.0
 10
117.8416291735444
 20
229.3135237077915
 30
0.0
 10
117.9176765701925
 20
229.5472904996562
 30
0.0
 10
117.9918307893924
 20
229.8646844441778
 30
0.0
 10
118.0089973991387
 20
230.1011900323468
 30
0.0
 10
117.976460599362
 20
230.2862219368691
 30
0.0
 10
117.8441812481176
 20
230.3959591655726
 30
0.0
 10
117.6602028368361
 20
230.4634455512507
 30
0.0
 10
117.4080127738765
 20
230.5035165864668
 30
0.0
 10
117.2166195324407
 20
230.5066271016395
 30
0.0
 10
117.1102052265865
 20
230.5083565426086
 30
0.0
  0
LINE
  5
D3
330
1F
100
AcDbEntity
  8
0
  6
Continuous
 62
     7
370
    25
100
AcDbLine
 10
117.1102052266
 20
230.5083565426
 30
0.0
 11
116.9709653706
 21
230.5083565523
 31
0.0
  0
SPLINE
  5
D4
330
1F
100
AcDbEntity
  8
0
  6
Continuous
 62
     7
370
    25
100
AcDbSpline
210
0.0
220
0.0
230
1.0
 70
     8
 71
     3
 72
    13
 73
     9
 74
     0
 42
0.00000001
 43
0.00000001
 40
0.3771196390234926
 40
0.3771196390234926
 40
0.3771196390234926
 40
0.3771196390234926
 40
0.3814558644195848
 40
0.5166384531486313
 40
0.6496301056797229
 40
0.7717873509532623
 40
0.887745476729146
 40
1.0
 40
1.0
 40
1.0
 40
1.0
 10
116.9709653706433
 20
230.5083565523144
 30
0.0
 10
116.9687610032058
 20
230.5060902860579
 30
0.0
 10
116.8976775707499
 20
230.4333256475716
 30
0.0
 10
116.7490315908367
 20
230.3007988718767
 30
0.0
 10
116.5132261614673
 20
230.1401122234867
 30
0.0
 10
116.2692692282845
 20
230.0212778949612
 30
0.0
 10
116.0218572578771
 20
229.9502402133278
 30
0.0
 10
115.8554863899212
 20
229.9400670097573
 30
0.0
 10
115.7736509502707
 20
229.9350629570823
 30
0.0
  0
SPLINE
  5
D5
330
1F
100
AcDbEntity
  8
0
  6
Continuous
 62
     7
370
    25
100
AcDbSpline
210
0.0
220
0.0
230
1.0
 70
     8
 71
     3
 72
    15
 73
    11
 74
     0
 42
0.00000001
 43
0.00000001
 40
0.0
 40
0.0
 40
0.0
 40
0.0
 40
0.1379699308024204
 40
0.2669747455976734
 40
0.3852829852217997
 40
0.5055274664612167
 40
0.6245728362052606
 40
0.7430288688159565
 40
0.8649782109037425
 40
1.0
 40
1.0
 40
1.0
 40
1.0
 10
115.7736509502707
 20
229.9350629570823
 30
0.0
 10
115.7145150045913
 20
229.9371185426746
 30
0.0
 10
115.600085694077
 20
229.9410961444417
 30
0.0
 10
115.4404043156432
 20
229.9868353933371
 30
0.0
 10
115.2981477015441
 20
230.0557396845303
 30
0.0
 10
115.1794215197421
 20
230.1544705720118
 30
0.0
 10
115.0865349371447
 20
230.2778195466655
 30
0.0
 10
115.0258723964622
 20
230.4201397418842
 30
0.0
 10
114.990055606578
 20
230.5777965308345
 30
0.0
 10
114.9900431737244
 20
230.6879413902221
 30
0.0
 10
114.9900366410602
 20
230.7458154241875
 30
0.0
  0
SPLINE
  5
D6
330
1F
100
AcDbEntity
  8
0
  6
Continuous
 62
     7
370
    25
100
AcDbSpline
210
0.0
220
0.0
230
1.0
 70
     8
 71
     3
 72
     9
 73
     5
 74
     0
 42
0.00000001
 43
0.00000001
 40
0.0
 40
0.0
 40
0.0
 40
0.0
 40
0.4217844221085686
 40
1.0
 40
1.0
 40
1.0
 40
1.0
 10
114.9900366410602
 20
230.7458154241875
 30
0.0
 10
114.9956427011479
 20
230.7957981036137
 30
0.0
 10
115.0089339935566
 20
230.9143010089042
 30
0.0
 10
115.0420982283484
 20
231.028935663835
 30
0.0
 10
115.0612743055338
 20
231.0952192070823
 30
0.0
  0
SPLINE
  5
D7
330
1F
100
AcDbEntity
  8
0
  6
Continuous
 62
     7
370
    25
100
AcDbSpline
210
0.0
220
0.0
230
1.0
 70
     8
 71
     3
 72
     9
 73
     5
 74
     0
 42
0.00000001
 43
0.00000001
 40
0.0
 40
0.0
 40
0.0
 40
0.0
 40
0.355631608724237
 40
0.4646574452757161
 40
0.4646574452757161
 40
0.4646574452757161
 40
0.4646574452757161
 10
115.0612743055338
 20
231.0952192070823
 30
0.0
 10
115.0754192900059
 20
231.1535482919236
 30
0.0
 10
115.0939006965711
 20
231.2297593004019
 30
0.0
 10
115.0978506257423
 20
231.3083786713973
 30
0.0
 10
115.0971851323437
 20
231.326773952505
 30
0.0
  0
LINE
  5
D8
330
1F
100
AcDbEntity
  8
0
  6
Continuous
 62
     7
370
    25
100
AcDbLine
 10
115.0971851323
 20
231.3267739525
 30
0.0
 11
114.3917179031
 21
231.1413534077
 31
0.0
  0
SPLINE
  5
D9
330
1F
100
AcDbEntity
  8
0
  6
Continuous
 62
     7
370
    25
100
AcDbSpline
210
0.0
220
0.0
230
1.0
 70
     8
 71
     3
 72
     9
 73
     5
 74
     0
 42
0.00000001
 43
0.00000001
 40
0.36684897723104
 40
0.36684897723104
 40
0.36684897723104
 40
0.36684897723104
 40
0.6598179175061726
 40
1.0
 40
1.0
 40
1.0
 40
1.0
 10
114.3917179031384
 20
231.1413534076626
 30
0.0
 10
114.2688821265496
 20
231.0163294736667
 30
0.0
 10
114.0149739683533
 20
230.7358178818274
 30
0.0
 10
113.8063044503758
 20
230.4201483274239
 30
0.0
 10
113.6941896015865
 20
230.2505440426086
 30
0.0
  0
SPLINE
  5
DA
330
1F
100
AcDbEntity
  8
0
  6
Continuous
 62
     7
370
    25
100
AcDbSpline
210
0.0
220
0.0
230
1.0
 70
     8
 71
     3
 72
    15
 73
    11
 74
     0
 42
0.00000001
 43
0.00000001
 40
0.0
 40
0.0
 40
0.0
 40
0.0
 40
0.117718323302517
 40
0.234716650105939
 40
0.3501827432356336
 40
0.4666800042384978
 40
0.5864835495735978
 40
0.7154778287953214
 40
0.8521305487912632
 40
0.9999999999999999
 40
0.9999999999999999
 40
0.9999999999999999
 40
0.9999999999999999
 10
113.6941896015865
 20
230.2505440426086
 30
0.0
 10
113.7397422350243
 20
230.1429194789575
 30
0.0
 10
113.8305688899075
 20
229.9283286120423
 30
0.0
 10
113.9200992201656
 20
229.5916583229381
 30
0.0
 10
113.9749228281254
 20
229.2494430560214
 30
0.0
 10
113.9947060644048
 20
228.9006221914235
 30
0.0
 10
113.9821571517506
 20
228.5378278221426
 30
0.0
 10
113.9239832934107
 20
228.1594858901687
 30
0.0
 10
113.8373620511565
 20
227.7581332295219
 30
0.0
 10
113.7498483103846
 20
227.4896745085935
 30
0.0
 10
113.704366410797
 20
227.3501534176086
 30
0.0
  0
SPLINE
  5
DB
330
1F
100
AcDbEntity
  8
0
  6
Continuous
 62
     7
370
    25
100
AcDbSpline
210
0.0
220
0.0
230
1.0
 70
     8
 71
     3
 72
    23
 73
    19
 74
     0
 42
0.00000001
 43
0.00000001
 40
0.0
 40
0.0
 40
0.0
 40
0.0
 40
0.0677007517584694
 40
0.1340352391434576
 40
0.1999685299808055
 40
0.2650104780871728
 40
0.3298794249415395
 40
0.395194354554222
 40
0.4609981134173831
 40
0.5276002848044131
 40
0.593381902961233
 40
0.6560131717712133
 40
0.716849426181604
 40
0.7752564063094274
 40
0.8326734115919894
 40
0.8889907684893081
 40
0.9442788662713089
 40
1.0
 40
1.0
 40
1.0
 40
1.0
 10
113.704366410797
 20
227.3501534176086
 30
0.0
 10
113.6481645601935
 20
227.1919278095306
 30
0.0
 10
113.5368950647999
 20
226.8786697338593
 30
0.0
 10
113.3253220248298
 20
226.429745241278
 30
0.0
 10
113.0936827823766
 20
225.9986738512741
 30
0.0
 10
112.8303491906217
 20
225.590297062995
 30
0.0
 10
112.5417802606163
 20
225.201323108679
 30
0.0
 10
112.2216845246229
 20
224.8352498718878
 30
0.0
 10
111.874871371673
 20
224.4884904602019
 30
0.0
 10
111.5046287812538
 20
224.1649809974838
 30
0.0
 10
111.1187508238385
 20
223.873205976289
 30
0.0
 10
110.7261019001921
 20
223.6158041411932
 30
0.0
 10
110.3303857846258
 20
223.3987385534926
 30
0.0
 10
109.9299253306815
 20
223.2204087351976
 30
0.0
 10
109.5262466893646
 20
223.0802119346719
 30
0.0
 10
109.1183937381324
 20
222.981938952901
 30
0.0
 10
108.7070688493376
 20
222.9220642540926
 30
0.0
 10
108.4318449438088
 20
222.9138137009475
 30
0.0
 10
108.2936961805338
 20
222.9096723320823
 30
0.0
  0
SPLINE
  5
DC
330
1F
100
AcDbEntity
  8
0
  6
Continuous
 62
     7
370
    25
100
AcDbSpline
210
0.0
220
0.0
230
1.0
 70
     8
 71
     3
 72
    11
 73
     7
 74
     0
 42
0.00000001
 43
0.00000001
 40
0.0
 40
0.0
 40
0.0
 40
0.0
 40
0.2593452790944507
 40
0.5070354224157293
 40
0.7509955661637875
 40
1.0
 40
1.0
 40
1.0
 40
1.0
 10
108.2936961805338
 20
222.9096723320823
 30
0.0
 10
108.1520953999852
 20
222.9131547254864
 30
0.0
 10
107.8752574647407
 20
222.9199630114011
 30
0.0
 10
107.4695703717922
 20
222.9861307863762
 30
0.0
 10
107.0802672181892
 20
223.0989878094945
 30
0.0
 10
106.8339334235384
 20
223.2076043843996
 30
0.0
 10
106.7095062134286
 20
223.2624683847138
 30
0.0
  0
SPLINE
  5
DD
330
1F
100
AcDbEntity
  8
0
  6
Continuous
 62
     7
370
    25
100
AcDbSpline
210
0.0
220
0.0
230
1.0
 70
     8
 71
     3
 72
    11
 73
     7
 74
     0
 42
0.00000001
 43
0.00000001
 40
0.0
 40
0.0
 40
0.0
 40
0.0
 40
0.2866782896432792
 40
0.5373962462314945
 40
0.7682725015894941
 40
1.0
 40
1.0
 40
1.0
 40
1.0
 10
106.7095062134286
 20
223.2624683847138
 30
0.0
 10
106.5741984133163
 20
223.1795474831121
 30
0.0
 10
106.3205555443128
 20
223.0241071066876
 30
0.0
 10
106.0032953997225
 20
222.7393816987151
 30
0.0
 10
105.7568876725166
 20
222.4262139961134
 30
0.0
 10
105.6615564232061
 20
222.1878105200245
 30
0.0
 10
105.6138030884286
 20
222.0683894373454
 30
0.0
  0
SPLINE
  5
DE
330
1F
100
AcDbEntity
  8
0
  6
Continuous
 62
     7
370
    25
100
AcDbSpline
210
0.0
220
0.0
230
1.0
 70
     8
 71
     3
 72
    23
 73
    19
 74
     0
 42
0.00000001
 43
0.00000001
 40
0.0
 40
0.0
 40
0.0
 40
0.0
 40
0.050484062492613
 40
0.0957241360176062
 40
0.1375324647620803
 40
0.1751009993890732
 40
0.2126569503497856
 40
0.249062564223345
 40
0.2882566947307345
 40
0.3295187834140669
 40
0.3778014100083756
 40
0.4349930303583039
 40
0.5019679899282232
 40
0.5807712133736824
 40
0.6689281876351721
 40
0.7684059960292628
 40
0.8784291633436728
 40
0.9999999999999999
 40
0.9999999999999999
 40
0.9999999999999999
 40
0.9999999999999999
 10
105.6138030884286
 20
222.0683894373454
 30
0.0
 10
105.5965043970301
 20
222.0122134529252
 30
0.0
 10
105.5637039010598
 20
221.905696716592
 30
0.0
 10
105.53932821068
 20
221.7470504941145
 30
0.0
 10
105.537623179128
 20
221.6013925365142
 30
0.0
 10
105.562575257928
 20
221.466983937738
 30
0.0
 10
105.6085373315684
 20
221.3446519959631
 30
0.0
 10
105.6836017773422
 20
221.2350492620996
 30
0.0
 10
105.7830474782417
 20
221.1413570651667
 30
0.0
 10
105.9069542071505
 20
221.056192919885
 30
0.0
 10
106.0632229971266
 20
220.9856741920597
 30
0.0
 10
106.2551682286965
 20
220.9268627129833
 30
0.0
 10
106.4848323247845
 20
220.8713565796845
 30
0.0
 10
106.7540875532389
 20
220.831037940603
 30
0.0
 10
107.061522046959
 20
220.7919456094559
 30
0.0
 10
107.4069486204523
 20
220.7675443799881
 30
0.0
 10
107.7913880937733
 20
220.7455995053242
 30
0.0
 10
108.0607228014312
 20
220.7410223765745
 30
0.0
 10
108.2021048976391
 20
220.7386197005033
 30
0.0
  0
LINE
  5
DF
330
1F
100
AcDbEntity
  8
0
  6
Continuous
 62
     7
370
    25
100
AcDbLine
 10
108.2021048976
 20
220.7386197005
 30
0.0
 11
108.7448680555
 21
220.7386197005
 31
0.0
  0
SPLINE
  5
E0
330
1F
100
AcDbEntity
  8
0
  6
Continuous
 62
     7
370
    25
100
AcDbSpline
210
0.0
220
0.0
230
1.0
 70
     8
 71
     3
 72
    15
 73
    11
 74
     0
 42
0.00000001
 43
0.00000001
 40
0.0
 40
0.0
 40
0.0
 40
0.0
 40
0.1884840335885082
 40
0.3526733346854857
 40
0.4929470373572495
 40
0.6097036459396481
 40
0.7132673202607187
 40
0.8119659981078035
 40
0.9072279766178595
 40
1.0
 40
1.0
 40
1.0
 40
1.0
 10
108.7448680555339
 20
220.7386197005033
 30
0.0
 10
108.9450384057826
 20
220.7365660310708
 30
0.0
 10
109.3195780608575
 20
220.7327234008314
 30
0.0
 10
109.8427005222203
 20
220.7077008775542
 30
0.0
 10
110.2879410263589
 20
220.6616666187316
 30
0.0
 10
110.665789343856
 20
220.5973709281905
 30
0.0
 10
110.994134919557
 20
220.5113121821874
 30
0.0
 10
111.2902188827147
 20
220.400491595896
 30
0.0
 10
111.5688477227492
 20
220.2753583997948
 30
0.0
 10
111.7358627392353
 20
220.1653336818874
 30
0.0
 10
111.8182644371128
 20
220.1110497991875
 30
0.0
  0
SPLINE
  5
E1
330
1F
100
AcDbEntity
  8
0
  6
Continuous
 62
     7
370
    25
100
AcDbSpline
210
0.0
220
0.0
230
1.0
 70
     8
 71
     3
 72
    12
 73
     8
 74
     0
 42
0.00000001
 43
0.00000001
 40
0.0
 40
0.0
 40
0.0
 40
0.0
 40
0.1200428793508676
 40
0.2354302802172486
 40
0.3526555937841518
 40
0.4729182817500437
 40
0.5762466209138218
 40
0.5762466209138218
 40
0.5762466209138218
 40
0.5762466209138218
 10
111.8182644371128
 20
220.1110497991875
 30
0.0
 10
111.8989957706721
 20
220.042527817841
 30
0.0
 10
112.0573275316641
 20
219.9081412606651
 30
0.0
 10
112.2476692946463
 20
219.6599012886025
 30
0.0
 10
112.3902183554478
 20
219.3824729874626
 30
0.0
 10
112.483071784325
 20
219.0959768047816
 30
0.0
 10
112.5165826437502
 20
218.9013106421641
 30
0.0
 10
112.5258875455732
 20
218.8107843698523
 30
0.0
  0
LINE
  5
E2
330
1F
100
AcDbEntity
  8
0
  6
Continuous
 62
     7
370
    25
100
AcDbLine
 10
112.5258875456
 20
218.8107843699
 30
0.0
 11
115.4412482065
 21
219.7775023238
 31
0.0
  0
SPLINE
  5
E3
330
1F
100
AcDbEntity
  8
0
  6
Continuous
 62
     7
370
    25
100
AcDbSpline
210
0.0
220
0.0
230
1.0
 70
     8
 71
     3
 72
    17
 73
    13
 74
     0
 42
0.00000001
 43
0.00000001
 40
0.3292239030323342
 40
0.3292239030323342
 40
0.3292239030323342
 40
0.3292239030323342
 40
0.3533585065366193
 40
0.397532804355771
 40
0.446040122134684
 40
0.5003528330656521
 40
0.5625171593433264
 40
0.6331651659893893
 40
0.7113528548360201
 40
0.7988502280816201
 40
0.8948933336421085
 40
1.0
 40
1.0
 40
1.0
 40
1.0
 10
115.4412482065479
 20
219.7775023237523
 30
0.0
 10
115.4178273833446
 20
219.8105022825735
 30
0.0
 10
115.3570577180723
 20
219.9079471887636
 30
0.0
 10
115.2787489071819
 20
220.0885018331566
 30
0.0
 10
115.2284024463471
 20
220.3304112645379
 30
0.0
 10
115.19993376747
 20
220.6056271171904
 30
0.0
 10
115.2108931075969
 20
220.9194207488376
 30
0.0
 10
115.2488505961374
 20
221.2706881815634
 30
0.0
 10
115.3177731885077
 20
221.6606103399002
 30
0.0
 10
115.4226787006385
 20
222.0860848219126
 30
0.0
 10
115.5494561938093
 20
222.5524764771994
 30
0.0
 10
115.6566028294943
 20
222.8717492019675
 30
0.0
 10
115.7125900950075
 20
223.0385785820823
 30
0.0
  0
SPLINE
  5
E4
330
1F
100
AcDbEntity
  8
0
  6
Continuous
 62
     7
370
    25
100
AcDbSpline
210
0.0
220
0.0
230
1.0
 70
     8
 71
     3
 72
    15
 73
    11
 74
     0
 42
0.00000001
 43
0.00000001
 40
0.5290385415963443
 40
0.5290385415963443
 40
0.5290385415963443
 40
0.5290385415963443
 40
0.535837941678911
 40
0.5843344157557298
 40
0.637150275123636
 40
0.6953699047536002
 40
0.7604579014007952
 40
0.8324071620446617
 40
0.9123833481846689
 40
1.0
 40
1.0
 40
1.0
 40
1.0
 10
103.1961954005346
 20
230.3767775952402
 30
0.0
 10
103.2016668887315
 20
230.3653102038967
 30
0.0
 10
103.244723561694
 20
230.2713833104068
 30
0.0
 10
103.3056805194697
 20
230.0779624133764
 30
0.0
 10
103.3519078589478
 20
229.7831500229161
 30
0.0
 10
103.3611084341332
 20
229.4538317051931
 30
0.0
 10
103.3272811895228
 20
229.0905520180787
 30
0.0
 10
103.2584547734549
 20
228.6912816873012
 30
0.0
 10
103.1485638457786
 20
228.2576720979705
 30
0.0
 10
103.0521565939001
 20
227.9602225941987
 30
0.0
 10
103.0017553910602
 20
227.8047175623454
 30
0.0
  0
LINE
  5
E5
330
1F
100
AcDbEntity
  8
0
  6
Continuous
 62
     7
370
    25
100
AcDbLine
 10
103.0017553911
 20
227.8047175623
 30
0.0
 11
100.82391822
 21
221.38993549
 31
0.0
  0
SPLINE
  5
E6
330
1F
100
AcDbEntity
  8
0
  6
Continuous
 62
     7
370
    25
100
AcDbSpline
210
0.0
220
0.0
230
1.0
 70
     8
 71
     3
 72
    15
 73
    11
 74
     0
 42
0.00000001
 43
0.00000001
 40
0.0
 40
0.0
 40
0.0
 40
0.0
 40
0.2140404048719824
 40
0.3942048937538745
 40
0.53982037196752
 40
0.6533734488679104
 40
0.7440855438364249
 40
0.8230835727118315
 40
0.9042871157910845
 40
1.0
 40
1.0
 40
1.0
 40
1.0
 10
100.8239182200075
 20
221.389935489977
 30
0.0
 10
100.7871669658466
 20
221.2784837294246
 30
0.0
 10
100.7194810340688
 20
221.0732195436579
 30
0.0
 10
100.6504510942584
 20
220.785260929149
 30
0.0
 10
100.6157860720469
 20
220.5461724156334
 30
0.0
 10
100.6186526004222
 20
220.3539478357335
 30
0.0
 10
100.6583385109277
 20
220.1997819659691
 30
0.0
 10
100.7518981193862
 20
220.0934552078872
 30
0.0
 10
100.8801505292008
 20
220.0276002381323
 30
0.0
 10
100.9779412744057
 20
220.0223168578094
 30
0.0
 10
101.0308466739549
 20
220.0194585162928
 30
0.0
  0
SPLINE
  5
E7
330
1F
100
AcDbEntity
  8
0
  6
Continuous
 62
     7
370
    25
100
AcDbSpline
210
0.0
220
0.0
230
1.0
 70
     8
 71
     3
 72
    15
 73
    11
 74
     0
 42
0.00000001
 43
0.00000001
 40
0.0
 40
0.0
 40
0.0
 40
0.0
 40
0.0764699834604334
 40
0.1568111051095867
 40
0.2430780191737123
 40
0.3430601509549608
 40
0.4639922725299367
 40
0.6125221563521657
 40
0.7917162300918044
 40
1.0
 40
1.0
 40
1.0
 40
1.0
 10
101.0308466739549
 20
220.0194585162928
 30
0.0
 10
101.1053119449806
 20
220.0253549335596
 30
0.0
 10
101.2580121407098
 20
220.0374462622871
 30
0.0
 10
101.4758255769175
 20
220.1398932511316
 30
0.0
 10
101.677146443002
 20
220.3043864989063
 30
0.0
 10
101.8708331966228
 20
220.533079733783
 30
0.0
 10
102.0560355499307
 20
220.8410442473459
 30
0.0
 10
102.2491203363461
 20
221.231531791204
 30
0.0
 10
102.446248198535
 20
221.7132517845457
 30
0.0
 10
102.5714707465873
 20
222.0677828778728
 30
0.0
 10
102.6387825292181
 20
222.2583565426086
 30
0.0
  0
LINE
  5
E8
330
1F
100
AcDbEntity
  8
0
  6
Continuous
 62
     7
370
    25
100
AcDbLine
 10
102.6387825292
 20
222.2583565426
 30
0.0
 11
103.0729930555
 21
222.2583565426
 31
0.0
  0
LINE
  5
E9
330
1F
100
AcDbEntity
  8
0
  6
Continuous
 62
     7
370
    25
100
AcDbLine
 10
103.0729930555
 20
222.2583565426
 30
0.0
 11
102.9101641082
 21
221.7800465097
 31
0.0
  0
SPLINE
  5
EA
330
1F
100
AcDbEntity
  8
0
  6
Continuous
 62
     7
370
    25
100
AcDbSpline
210
0.0
220
0.0
230
1.0
 70
     8
 71
     3
 72
    13
 73
     9
 74
     0
 42
0.00000001
 43
0.00000001
 40
0.0
 40
0.0
 40
0.0
 40
0.0
 40
0.1546958753696042
 40
0.295950751109378
 40
0.425977589289742
 40
0.5475453817969491
 40
0.6620192260141247
 40
0.7340445112637588
 40
0.7340445112637588
 40
0.7340445112637588
 40
0.7340445112637588
 10
102.9101641081654
 20
221.7800465097138
 30
0.0
 10
102.8367651459692
 20
221.58015832106
 30
0.0
 10
102.6963446083127
 20
221.1977495501174
 30
0.0
 10
102.4211636808167
 20
220.6790280335259
 30
0.0
 10
102.1182738493747
 20
220.2295906432838
 30
0.0
 10
101.7688089559256
 20
219.8645377109359
 30
0.0
 10
101.4322195333694
 20
219.6032960038329
 30
0.0
 10
101.2046110947356
 20
219.4837799601368
 30
0.0
 10
101.1141619672421
 20
219.4429502414176
 30
0.0
  0
LINE
  5
EB
330
1F
100
AcDbEntity
  8
0
  6
Continuous
 62
     7
370
    25
100
AcDbLine
 10
101.1141619672
 20
219.4429502414
 30
0.0
 11
102.4920557415
 21
217.5002783169
 31
0.0
  0
SPLINE
  5
EC
330
1F
100
AcDbEntity
  8
0
  6
Continuous
 62
     7
370
    25
100
AcDbSpline
210
0.0
220
0.0
230
1.0
 70
     8
 71
     3
 72
    13
 73
     9
 74
     0
 42
0.00000001
 43
0.00000001
 40
0.2164892157732046
 40
0.2164892157732046
 40
0.2164892157732046
 40
0.2164892157732046
 40
0.3058320551184722
 40
0.4227328038251499
 40
0.5497414763527665
 40
0.6882464401484573
 40
0.8378089298801518
 40
1.0
 40
1.0
 40
1.0
 40
1.0
 10
102.4920557415227
 20
217.5002783168972
 30
0.0
 10
102.5645586861281
 20
217.5858014945785
 30
0.0
 10
102.7424710255197
 20
217.7735301213471
 30
0.0
 10
103.0720560506675
 20
218.0320849831258
 30
0.0
 10
103.4785818694409
 20
218.2863056073234
 30
0.0
 10
103.9439312713839
 20
218.5197199117296
 30
0.0
 10
104.4696509095883
 20
218.7256198965814
 30
0.0
 10
104.8429216152438
 20
218.8403307239779
 30
0.0
 10
105.0371172331654
 20
218.9000095031349
 30
0.0
  0
SPLINE
  5
ED
330
1F
100
AcDbEntity
  8
0
  6
Continuous
 62
     7
370
    25
100
AcDbSpline
210
0.0
220
0.0
230
1.0
 70
     8
 71
     3
 72
    15
 73
    11
 74
     0
 42
0.00000001
 43
0.00000001
 40
0.0
 40
0.0
 40
0.0
 40
0.0
 40
0.1275131171908666
 40
0.2466615356535817
 40
0.3620176728339958
 40
0.4803970183891246
 40
0.6027123345127504
 40
0.7259790864058648
 40
0.8574186192036025
 40
1.0
 40
1.0
 40
1.0
 40
1.0
 10
105.0371172331654
 20
218.9000095031349
 30
0.0
 10
104.9230114633624
 20
218.9417572618053
 30
0.0
 10
104.7022851175042
 20
219.0225141791373
 30
0.0
 10
104.4139334652847
 20
219.2170451686571
 30
0.0
 10
104.1842193835357
 20
219.4648240139068
 30
0.0
 10
104.0127754904406
 20
219.7599148375859
 30
0.0
 10
103.9097257831031
 20
220.0927762626386
 30
0.0
 10
103.8714585427346
 20
220.4510877088881
 30
0.0
 10
103.9074371959963
 20
220.8298030988954
 30
0.0
 10
103.9811048174502
 20
221.079973800693
 30
0.0
 10
104.0194363121128
 20
221.2101451939244
 30
0.0
  0
SPLINE
  5
EE
330
1F
100
AcDbEntity
  8
0
  6
Continuous
 62
     7
370
    25
100
AcDbSpline
210
0.0
220
0.0
230
1.0
 70
     8
 71
     3
 72
    15
 73
    11
 74
     0
 42
0.00000001
 43
0.00000001
 40
0.0
 40
0.0
 40
0.0
 40
0.0
 40
0.1042373520659986
 40
0.2096034731004928
 40
0.3158948442740692
 40
0.4266921462018467
 40
0.5467518563780868
 40
0.6821514305047052
 40
0.8334194366000759
 40
1.0
 40
1.0
 40
1.0
 40
1.0
 10
104.0194363121128
 20
221.2101451939244
 30
0.0
 10
104.0604657778408
 20
221.3212143730531
 30
0.0
 10
104.1429690105648
 20
221.5445554809993
 30
0.0
 10
104.3234356332269
 20
221.855819856348
 30
0.0
 10
104.5397756719479
 20
222.1512694167486
 30
0.0
 10
104.798969758176
 20
222.433481730913
 30
0.0
 10
105.110965187781
 20
222.7087681830709
 30
0.0
 10
105.4839073405874
 20
222.9808010887214
 30
0.0
 10
105.9134731577186
 20
223.2637724093338
 30
0.0
 10
106.2287778037834
 20
223.4387526705455
 30
0.0
 10
106.3940251279023
 20
223.5304576939243
 30
0.0
  0
SPLINE
  5
EF
330
1F
100
AcDbEntity
  8
0
  6
Continuous
 62
     7
370
    25
100
AcDbSpline
210
0.0
220
0.0
230
1.0
 70
     8
 71
     3
 72
    15
 73
    11
 74
     0
 42
0.00000001
 43
0.00000001
 40
0.0
 40
0.0
 40
0.0
 40
0.0
 40
0.1159841905321494
 40
0.2283197377486899
 40
0.3391378446134573
 40
0.4523386685986849
 40
0.571811759704118
 40
0.7015008969263113
 40
0.8441209587726758
 40
0.9999999999999999
 40
0.9999999999999999
 40
0.9999999999999999
 40
0.9999999999999999
 10
106.3940251279023
 20
223.5304576939243
 30
0.0
 10
106.3044032202142
 20
223.6501606777381
 30
0.0
 10
106.1279787405848
 20
223.8858010158454
 30
0.0
 10
105.9295467748862
 20
224.2775793156323
 30
0.0
 10
105.796993495006
 20
224.691178805294
 30
0.0
 10
105.719460980204
 20
225.1283740805196
 30
0.0
 10
105.7143580610617
 20
225.5964404524259
 30
0.0
 10
105.7625522244479
 20
226.0993383659558
 30
0.0
 10
105.8768265444696
 20
226.6399865353546
 30
0.0
 10
105.9937431843846
 20
227.006240179264
 30
0.0
 10
106.0547981542181
 20
227.1975012794507
 30
0.0
  0
SPLINE
  5
F0
330
1F
100
AcDbEntity
  8
0
  6
Continuous
 62
     7
370
    25
100
AcDbSpline
210
0.0
220
0.0
230
1.0
 70
     8
 71
     3
 72
    16
 73
    12
 74
     0
 42
0.00000001
 43
0.00000001
 40
0.0
 40
0.0
 40
0.0
 40
0.0
 40
0.0657052034455015
 40
0.1304484766742153
 40
0.1948053849469667
 40
0.2586878686506399
 40
0.3227329590789685
 40
0.3873811550244884
 40
0.4526011652015484
 40
0.5190897794643545
 40
0.5637767253321191
 40
0.5637767253321191
 40
0.5637767253321191
 40
0.5637767253321191
 10
106.0547981542181
 20
227.1975012794507
 30
0.0
 10
106.1077466856748
 20
227.345497060158
 30
0.0
 10
106.2128685772216
 20
227.6393219497421
 30
0.0
 10
106.4132674097212
 20
228.0604923346281
 30
0.0
 10
106.6361968386878
 20
228.4647061171831
 30
0.0
 10
106.8875869616881
 20
228.8502997861847
 30
0.0
 10
107.1714395872783
 20
229.2133608985645
 30
0.0
 10
107.4797536120431
 20
229.5600427463085
 30
0.0
 10
107.8169643502594
 20
229.8873480005897
 30
0.0
 10
108.1417023834332
 20
230.1570926182504
 30
0.0
 10
108.3556133489801
 20
230.3149658856948
 30
0.0
 10
108.4427829740392
 20
230.3767775971228
 30
0.0
  0
LINE
  5
F1
330
1F
100
AcDbEntity
  8
0
  6
Continuous
 62
     7
370
    25
100
AcDbLine
 10
108.4427829754
 20
230.3767775952
 30
0.0
 11
103.1961954005
 21
230.3767775952
 31
0.0
  0
LINE
  5
F2
330
1F
100
AcDbEntity
  8
0
  6
Continuous
 62
     7
370
    25
100
AcDbLine
 10
78.4485070358
 20
212.4359881216
 30
0.0
 11
134.8010914495
 21
212.4359881216
 31
0.0
  0
LINE
  5
F3
330
1F
100
AcDbEntity
  8
0
  6
Continuous
 62
     7
370
    25
100
AcDbLine
 10
78.4485070358
 20
242.1283211155
 30
0.0
 11
78.4485070358
 21
212.4359881216
 31
0.0
  0
LINE
  5
F4
330
1F
100
AcDbEntity
  8
0
  6
Continuous
 62
     7
370
    25
100
AcDbLine
 10
135.6591361476
 20
242.1283211155
 30
0.0
 11
78.4485070358
 21
242.1283211155
 31
0.0
  0
LINE
  5
F5
330
1F
100
AcDbEntity
  8
0
  6
Continuous
 62
     7
370
    25
100
AcDbLine
 10
135.6591361476
 20
231.1053960163
 30
0.0
 11
135.6591361476
 21
242.1283211155
 31
0.0
  0
LINE
  5
F6
330
1F
100
AcDbEntity
  8
0
  6
Continuous
 62
     7
370
    25
100
AcDbLine
 10
134.8010914495
 20
219.4359881216
 30
0.0
 11
135.6591361476
 21
231.1053960163
 31
0.0
  0
LINE
  5
F7
330
1F
100
AcDbEntity
  8
0
  6
Continuous
 62
     7
370
    25
100
AcDbLine
 10
134.8010914495
 20
212.4359881216
 30
0.0
 11
134.8010914495
 21
219.4359881216
 31
0.0
  0
CIRCLE
  5
F8
330
1F
100
AcDbEntity
  8
0
  6
Continuous
 62
     7
370
    25
100
AcDbCircle
 10
131.6591361476
 20
238.6283211155
 30
0.0
 40
1.75
  0
ENDSEC
  0
SECTION
  2
OBJECTS
  0
DICTIONARY
  5
C
330
0
100
AcDbDictionary
281
     1
  3
ACAD_GROUP
350
D
  3
ACAD_LAYOUT
350
1A
  3
ACAD_MLINESTYLE
350
17
  3
ACAD_PLOTSETTINGS
350
19
  3
ACAD_PLOTSTYLENAME
350
E
  3
ACAD_SCALELIST
350
47
  3
DWGPROPS
350
F9
  0
DICTIONARY
  5
D
102
{ACAD_REACTORS
330
C
102
}
330
C
100
AcDbDictionary
281
     1
  0
DICTIONARY
  5
1A
102
{ACAD_REACTORS
330
C
102
}
330
C
100
AcDbDictionary
281
     1
  3
Layout1
350
1E
  3
Layout2
350
26
  3
Model
350
22
  0
DICTIONARY
  5
17
102
{ACAD_REACTORS
330
C
102
}
330
C
100
AcDbDictionary
281
     1
  3
Standard
350
18
  0
DICTIONARY
  5
19
102
{ACAD_REACTORS
330
C
102
}
330
C
100
AcDbDictionary
281
     1
  0
ACDBDICTIONARYWDFLT
  5
E
102
{ACAD_REACTORS
330
C
102
}
330
C
100
AcDbDictionary
281
     1
  3
Normal
350
F
100
AcDbDictionaryWithDefault
340
F
  0
DICTIONARY
  5
47
102
{ACAD_REACTORS
330
C
102
}
330
C
100
AcDbDictionary
281
     1
  3
A0
350
48
  3
A1
350
49
  3
A2
350
4A
  3
A3
350
4B
  3
A4
350
4C
  3
A5
350
4D
  3
A6
350
4E
  3
A7
350
4F
  3
A8
350
50
  3
A9
350
51
  3
B0
350
52
  3
B1
350
53
  3
B2
350
54
  3
B3
350
55
  3
B4
350
56
  3
B5
350
57
  3
B6
350
58
  0
XRECORD
  5
F9
102
{ACAD_REACTORS
330
C
102
}
330
C
100
AcDbXrecord
280
     1
  1
DWGPROPS COOKIE
  2

  3

  4

  6

  7

  8
Axioo Pongo
  9

300
=
301
=
302
=
303
=
304
=
305
=
306
=
307
=
308
=
309
=
 40
0.0
 41
2461170.264638114
 42
2461170.264638785
  1

 90
        0
  0
LAYOUT
  5
1E
102
{ACAD_REACTORS
330
1A
102
}
330
1A
100
AcDbPlotSettings
  1

  2
none_device
  4

  6

 40
0.0
 41
0.0
 42
0.0
 43
0.0
 44
0.0
 45
0.0
 46
0.0
 47
0.0
 48
0.0
 49
0.0
140
0.0
141
0.0
142
1.0
143
1.0
 70
   688
 72
     1
 73
     0
 74
     5
  7

 75
    16
147
1.0
148
0.0
149
0.0
100
AcDbLayout
  1
Layout1
 70
     1
 71
     1
 10
0.0
 20
0.0
 11
420.0
 21
297.0
 12
0.0
 22
0.0
 32
0.0
 14
1.0000000000E+20
 24
1.0000000000E+20
 34
1.0000000000E+20
 15
-1.0000000000E+20
 25
-1.0000000000E+20
 35
-1.0000000000E+20
146
0.0
 13
0.0
 23
0.0
 33
0.0
 16
1.0
 26
0.0
 36
0.0
 17
0.0
 27
1.0
 37
0.0
 76
     0
330
1B
  0
LAYOUT
  5
26
102
{ACAD_REACTORS
330
1A
102
}
330
1A
100
AcDbPlotSettings
  1

  2
none_device
  4

  6

 40
0.0
 41
0.0
 42
0.0
 43
0.0
 44
0.0
 45
0.0
 46
0.0
 47
0.0
 48
0.0
 49
0.0
140
0.0
141
0.0
142
1.0
143
1.0
 70
   688
 72
     1
 73
     0
 74
     5
  7

 75
    16
147
1.0
148
0.0
149
0.0
100
AcDbLayout
  1
Layout2
 70
     1
 71
     2
 10
0.0
 20
0.0
 11
0.0
 21
0.0
 12
0.0
 22
0.0
 32
0.0
 14
0.0
 24
0.0
 34
0.0
 15
0.0
 25
0.0
 35
0.0
146
0.0
 13
0.0
 23
0.0
 33
0.0
 16
1.0
 26
0.0
 36
0.0
 17
0.0
 27
1.0
 37
0.0
 76
     0
330
23
  0
LAYOUT
  5
22
102
{ACAD_REACTORS
330
1A
102
}
330
1A
100
AcDbPlotSettings
  1

  2
none_device
  4
Letter_(8.50_x_11.00_Inches)
  6

 40
6.35
 41
6.35
 42
6.35000508
 43
6.35000508
 44
215.9
 45
279.4
 46
0.0
 47
0.0
 48
0.0
 49
0.0
140
0.0
141
0.0
142
1.0
143
1.0
 70
  1712
 72
     1
 73
     0
 74
     0
  7

 75
     0
147
1.0
148
0.0
149
0.0
100
AcDbLayout
  1
Model
 70
     1
 71
     0
 10
0.0
 20
0.0
 11
215.9
 21
279.4
 12
0.0
 22
0.0
 32
0.0
 14
0.0
 24
0.0
 34
0.0
 15
215.9
 25
279.4
 35
0.0
146
0.0
 13
0.0
 23
0.0
 33
0.0
 16
1.0
 26
0.0
 36
0.0
 17
0.0
 27
1.0
 37
0.0
 76
     0
330
1F
331
29
  0
MLINESTYLE
  5
18
102
{ACAD_REACTORS
330
17
102
}
330
17
100
AcDbMlineStyle
  2
Standard
 70
     0
  3

 62
   256
 51
90.0
 52
90.0
 71
     2
 49
0.5
 62
   256
  6
BYLAYER
 49
-0.5
 62
   256
  6
BYLAYER
  0
ACDBPLACEHOLDER
  5
F
102
{ACAD_REACTORS
330
E
102
}
330
E
  0
SCALE
  5
48
102
{ACAD_REACTORS
330
47
102
}
330
47
100
AcDbScale
 70
     0
300
1:1
140
1.0
141
1.0
290
     1
  0
SCALE
  5
49
102
{ACAD_REACTORS
330
47
102
}
330
47
100
AcDbScale
 70
     0
300
1:2
140
1.0
141
2.0
290
     0
  0
SCALE
  5
4A
102
{ACAD_REACTORS
330
47
102
}
330
47
100
AcDbScale
 70
     0
300
1:4
140
1.0
141
4.0
290
     0
  0
SCALE
  5
4B
102
{ACAD_REACTORS
330
47
102
}
330
47
100
AcDbScale
 70
     0
300
1:5
140
1.0
141
5.0
290
     0
  0
SCALE
  5
4C
102
{ACAD_REACTORS
330
47
102
}
330
47
100
AcDbScale
 70
     0
300
1:8
140
1.0
141
8.0
290
     0
  0
SCALE
  5
4D
102
{ACAD_REACTORS
330
47
102
}
330
47
100
AcDbScale
 70
     0
300
1:10
140
1.0
141
10.0
290
     0
  0
SCALE
  5
4E
102
{ACAD_REACTORS
330
47
102
}
330
47
100
AcDbScale
 70
     0
300
1:16
140
1.0
141
16.0
290
     0
  0
SCALE
  5
4F
102
{ACAD_REACTORS
330
47
102
}
330
47
100
AcDbScale
 70
     0
300
1:20
140
1.0
141
20.0
290
     0
  0
SCALE
  5
50
102
{ACAD_REACTORS
330
47
102
}
330
47
100
AcDbScale
 70
     0
300
1:30
140
1.0
141
30.0
290
     0
  0
SCALE
  5
51
102
{ACAD_REACTORS
330
47
102
}
330
47
100
AcDbScale
 70
     0
300
1:40
140
1.0
141
40.0
290
     0
  0
SCALE
  5
52
102
{ACAD_REACTORS
330
47
102
}
330
47
100
AcDbScale
 70
     0
300
1:50
140
1.0
141
50.0
290
     0
  0
SCALE
  5
53
102
{ACAD_REACTORS
330
47
102
}
330
47
100
AcDbScale
 70
     0
300
1:100
140
1.0
141
100.0
290
     0
  0
SCALE
  5
54
102
{ACAD_REACTORS
330
47
102
}
330
47
100
AcDbScale
 70
     0
300
2:1
140
2.0
141
1.0
290
     0
  0
SCALE
  5
55
102
{ACAD_REACTORS
330
47
102
}
330
47
100
AcDbScale
 70
     0
300
4:1
140
4.0
141
1.0
290
     0
  0
SCALE
  5
56
102
{ACAD_REACTORS
330
47
102
}
330
47
100
AcDbScale
 70
     0
300
8:1
140
8.0
141
1.0
290
     0
  0
SCALE
  5
57
102
{ACAD_REACTORS
330
47
102
}
330
47
100
AcDbScale
 70
     0
300
10:1
140
10.0
141
1.0
290
     0
  0
SCALE
  5
58
102
{ACAD_REACTORS
330
47
102
}
330
47
100
AcDbScale
 70
     0
300
100:1
140
100.0
141
1.0
290
     0
  0
ENDSEC
  0
EOF
